<?xml version="1.0" standalone="no"?>
<!DOCTYPE svg PUBLIC "-//W3C//DTD SVG 1.1//EN" "http://www.w3.org/Graphics/SVG/1.1/DTD/svg11.dtd" >
<svg xmlns="http://www.w3.org/2000/svg" xmlns:xlink="http://www.w3.org/1999/xlink" version="1.1">
<metadata></metadata>
<defs>
<font id="rupster_script_freeregular" horiz-adv-x="1705" >
<font-face units-per-em="2048" ascent="1638" descent="-410" />
<missing-glyph horiz-adv-x="831" />
<glyph horiz-adv-x="0" />
<glyph horiz-adv-x="0" />
<glyph unicode="&#xd;" horiz-adv-x="831" />
<glyph unicode=" "  horiz-adv-x="831" />
<glyph unicode="&#x09;" horiz-adv-x="831" />
<glyph unicode="&#xa0;" horiz-adv-x="831" />
<glyph unicode="!" horiz-adv-x="542" d="M121 774q-37 526 112 1055q64 53 216 -29q152 -86 83 -178q-190 -260 -264 -702q-70 -432 35 -601l-65 -28q-86 43 -117 483zM225 33q1 36 15 73q29 74 106 78q63 6 100 -45q31 -45 23 -94q-16 -109 -111 -125q-98 -14 -133 113z" />
<glyph unicode="&#x22;" horiz-adv-x="583" d="M27 1466l168 56q43 -53 53 -140q20 -170 -146 -325l-22 12q29 39 37 105q20 131 -68 260zM293 1466l168 56q43 -53 53 -140q20 -170 -145 -325l-23 12q29 39 37 105q20 131 -68 260z" />
<glyph unicode="'" horiz-adv-x="282" d="M23 1466l167 56q43 -53 54 -140q20 -170 -146 -325l-22 12q29 39 37 105q20 131 -68 260z" />
<glyph unicode="*" d="M272 614q-8 59 21 117q-14 -38 162 -63q53 -8 129 -15q-49 55 -135 115q-72 47 -74 57q-18 53 31 123q47 68 108 86q-20 -63 80 -207q35 -51 84 -96q2 254 -4 285q70 37 123 -2q6 -31 -11 -111q-16 -90 -10 -192q172 164 193 170q55 18 102 -13q43 -29 62 -88 q-33 -18 -191 -98l-76 -47q195 -2 277 24l8 -79q-45 -39 -299 -56q72 -80 162 -116q127 -51 114 -43q-14 -82 -69 -91q-94 8 -295 185q31 -225 4 -275q-23 -51 -70 -51q-41 0 -84 39q37 61 31 293q-123 -98 -205 -238l-59 54q8 100 149 233q-176 2 -198 14q-51 23 -60 86z " />
<glyph unicode="+" horiz-adv-x="1439" d="M156 625q-16 80 10 137q33 -57 207 -82q119 -16 262 -25q0 336 27 389q25 51 108 70q80 16 135 -10q-57 -33 -82 -207q-10 -70 -24 -252q365 -14 458 12l7 -79q-78 -68 -473 -82q-18 -377 10 -484l-80 -6q-68 76 -84 486q-350 -4 -412 26q-51 25 -69 107z" />
<glyph unicode="," horiz-adv-x="358" d="M59 -211q94 66 109 207q-63 20 -82 117q2 36 18 71q35 72 115 72q109 0 113 -117q41 -246 -256 -370z" />
<glyph unicode="-" horiz-adv-x="782" d="M76 571q-16 80 10 138q33 -57 207 -82q270 -37 426 -4l6 -93q-86 -74 -307 -88q-199 -12 -273 23q-51 25 -69 106z" />
<glyph unicode="." horiz-adv-x="253" d="M20 98q4 115 117 115q55 0 82 -43q23 -39 14 -78q-20 -90 -104 -94q-86 -6 -109 100z" />
<glyph unicode=":" horiz-adv-x="309" d="M51 178q4 115 117 115q55 0 82 -43q23 -39 14 -78q-20 -90 -104 -94q-86 -6 -109 100zM88 723q4 115 117 115q55 0 82 -43q23 -39 14 -78q-20 -90 -104 -94q-86 -6 -109 100z" />
<glyph unicode=";" horiz-adv-x="389" d="M18 -57q76 45 88 143q-49 12 -67 80q6 98 108 98q86 0 91 -80q27 -170 -205 -254zM88 723q4 115 117 115q55 0 82 -43q23 -39 14 -78q-20 -90 -104 -94q-86 -6 -109 100z" />
<glyph unicode="&#x3c;" horiz-adv-x="706" d="M111 571q43 57 211 246q174 195 247 289q-2 6 35 -25q37 -33 31 -32q27 14 -96 -172q-129 -195 -238 -287q4 4 107 -119q127 -158 210 -340q9 -18 -104 -49q-41 117 -403 489z" />
<glyph unicode="=" horiz-adv-x="1206" d="M156 596q-16 53 10 109q39 -25 213 -50q475 -66 715 2l6 -79q-86 -74 -457 -84q-344 -10 -418 24q-53 25 -69 78zM195 285l6 80q223 -63 635 -7q174 25 200 45q27 -55 11 -102q-14 -49 -68 -74q-74 -35 -375 -26q-324 10 -409 84z" />
<glyph unicode="&#x3e;" horiz-adv-x="872" d="M195 137q-25 -12 106 168q139 186 250 275q-6 -4 -100 122q-119 162 -193 351q-8 18 107 45q37 -123 378 -510q-45 -57 -223 -236q-184 -184 -262 -274q0 -6 -35 26q-35 33 -28 33z" />
<glyph unicode="?" horiz-adv-x="733" d="M-94 1272q-137 94 6 270q129 158 397 236q297 84 400 -76q94 -143 53 -279q-23 -84 -150 -258q-295 -414 -282 -815q-49 -57 -82 -28q-49 485 104 739q20 33 64 92q41 59 59 90q66 109 78 236q8 74 -53 112q-59 37 -144 15q-221 -57 -286 -389q-1 -6 -58 8 q-63 16 -106 47zM195 33q0 36 14 73q29 74 106 78q63 6 101 -45q31 -45 22 -94q-16 -109 -110 -125q-98 -14 -133 113z" />
<glyph unicode="@" horiz-adv-x="1605" d="M158 526q80 350 366 508q256 141 549 72q295 -70 420 -311q143 -270 -16 -641q-14 8 -7 16q19 19 35 154q20 166 -10 305q-94 430 -604 389q-195 -16 -328 -162q-119 -133 -157 -332q-37 -190 12 -360q53 -180 184 -256q268 -158 490 -109q168 35 514 264q14 8 -33 -69 q-53 -84 -131 -154q-250 -221 -637 -182q-305 31 -506 260q-223 256 -141 608zM625 295q-10 176 102 352q113 174 254 211q160 41 262 -135q0 -6 -57 -4q-76 0 -131 -23q-197 -80 -238 -436q-16 -188 76 -178q68 8 137 92q92 115 123 492l115 -31q-25 -313 -25 -375 q0 -82 53 -147q72 -84 166 47l6 -6q-43 -139 -149 -152q-197 -20 -168 256q-43 -94 -107 -170q-119 -141 -227 -88q-180 92 -192 295z" />
<glyph unicode="A" horiz-adv-x="2353" d="M51 184q-1 13 -1 25q0 65 18 119h32q0 -324 398 -324q40 -4 79 -4q465 0 754 522q-83 -5 -164 -5t-159 5q-305 16 -465 152q-80 68 -99 131q-29 80 -29 169q0 26 3 54q23 238 264 318q150 36 273 36q149 0 259 -53l-24 -29q-159 30 -271 30q-69 0 -120 -11 q-244 -37 -277 -268q-4 -29 -5 -56q0 -210 271 -284q143 -40 341 -40q129 0 282 17q94 215 201 602q47 172 164 709q26 12 52 12.5t50 -12.5q31 -176 78 -578q49 -426 84 -628q205 -12 325 -115h-20q-37 11 -95 11q-77 0 -190 -19q156 -823 557 -1030q-44 -6 -86 -6 q-560 0 -686 993q-66 -14 -110 -27q-84 -31 -222 -55q-184 -418 -440 -600q-206 -144 -445 -144q-40 0 -81 4q-227 23 -375 140q-115 80 -121 239zM1577 713q117 18 219 49l33 8q-20 197 -33 526q-12 315 -20 408q-29 -295 -187 -954z" />
<glyph unicode="B" horiz-adv-x="2246" d="M78 1186q-5 0 24 45q35 55 86 115q164 182 424 307q219 105 424 106q73 0 144 -14q238 -43 387 -219q137 -161 138 -355q0 -8 -1 -16q-8 -213 -186 -356q23 1 45 1q197 0 350 -79q184 -94 262 -283q54 -131 53 -258q0 -87 -24 -172q-61 -211 -250 -346 q-234 -168 -547 -168q-281 0 -625 135l-18 -71q1 -1 -1 -1q-10 0 -87 21l12 90l-90 43q8 8 20 74l82 -25q29 260 29 512q0 175 -14 346q-145 10 -291 33q10 8 49 117q127 -55 236 -80q-57 567 -88 567q264 -10 309 -79q24 -36 24 -216q0 -115 -10 -290q223 18 402 182 q89 81 89 209q0 46 -12 98q-43 197 -217 318q-146 103 -329 103q-65 0 -134 -13q-317 -59 -665 -381zM807 -266q247 -60 441 -60q242 0 401 93q207 123 207 346q0 35 -5 73q-39 268 -286 400q-130 70 -275 70q-167 0 -352 -93q-35 -412 -131 -829z" />
<glyph unicode="C" horiz-adv-x="1667" d="M76 379v21q0 371 205 638q31 45 77 99q-160 123 -204 290q-17 60 -17 114q0 71 29 132q55 131 211 199q96 42 208 42q124 0 267 -52l-18 -23q-83 17 -168 17q-54 0 -109 -7q-283 -37 -317 -262q-4 -27 -5 -52q0 -175 211 -298q346 359 741 358q61 0 124 -8 q227 -31 309 -172q33 -58 33 -113q0 -78 -66 -153q-129 -147 -405 -201q-99 -19 -197 -19q-212 0 -412 89q-41 16 -92 41q-213 -323 -213 -712q0 -53 4 -107q39 -371 459 -473q125 -30 235 -30q240 0 416 140q278 238 278 273q0 2 -1 4q2 -22 2 -44q0 -112 -59 -235 q-141 -295 -566 -373q-77 -12 -150 -12q-330 0 -562 246q-143 150 -201 313q-45 137 -47 330zM571 1176q195 -75 374 -76q63 0 124 10q274 41 350 268v9q0 66 -88 83q-31 6 -70 6q-64 0 -149 -16q-307 -61 -448 -192q-51 -43 -93 -92z" />
<glyph unicode="D" horiz-adv-x="2162" d="M14 1315q-4 0 33 33q47 39 111 77q199 129 475 209q159 47 321 47q273 0 555 -133q508 -238 557 -755q4 -41 4 -82q0 -192 -77 -392q-98 -250 -289 -428q-315 -294 -727 -294q-191 0 -402 63q-10 -35 -20 -94q1 -1 -1 -1q-10 0 -87 21l14 105q-96 33 -198 84 q10 10 49 116q82 -55 162 -94q26 232 26 466q0 288 -39 581q-53 418 -69 420q264 -10 309 -80q15 -10 15 -157q0 -83 -5 -210q-16 -477 -135 -1061q184 -68 361 -68q47 0 94 5q231 25 366 157q338 338 365 719q3 35 3 70q0 307 -216 543q-242 262 -641 313q-81 10 -163 10 q-362 0 -751 -190z" />
<glyph unicode="E" horiz-adv-x="1572" d="M104 -135q-30 97 -30 189q0 174 106 333q168 264 395 406q-152 94 -200 213q-43 68 -43 168q0 29 4 61q25 199 215 344q-115 68 -141 160q-7 26 -7 51q0 45 23 84q43 72 154 108q65 20 141 20q93 0 203 -30l-6 -6q-60 10 -123 10q-39 0 -78 -4q-207 -18 -236 -145 q-4 -17 -4 -34q0 -96 144 -161q253 200 553 200q47 0 94 -5q168 -18 229 -98q25 -32 24 -62q0 -43 -48 -86q-94 -82 -297 -113q-73 -10 -145 -10q-157 0 -306 49l-68 23q-131 -159 -131 -352q0 -24 2 -48q23 -150 207 -260q207 84 357 99q84 8 151 9q268 0 291 -130v-12 q0 -161 -260 -195q-60 -8 -122 -8q-200 0 -415 82q-113 -88 -241 -256q-102 -178 -102 -362q0 -131 52 -265q86 -186 275 -276q139 -65 303 -65q44 0 90 5q217 23 397 142q193 129 285 333q20 -52 20 -110q0 -64 -24 -135q-90 -276 -520 -420q-165 -51 -318 -51 q-250 0 -469 135q-174 109 -264 243q-74 92 -117 232zM725 1595q136 -41 230 -41q22 0 42 2q130 0 226 33q125 41 125 119v7q0 52 -105 51q-49 0 -121 -11q-225 -35 -329 -108q-33 -20 -68 -52zM883 805q117 -41 236 -41q24 0 48 2q203 11 203 67q0 25 -80 37 q-56 10 -106 10q-13 0 -25 -1q-150 -12 -276 -74z" />
<glyph unicode="F" horiz-adv-x="1488" d="M-444 1599q-8 43 -8 80q0 183 184 236q72 20 139 20q109 0 207 -53q-62 6 -113 6q-111 0 -172 -28q-67 -32 -68 -93q0 -26 13 -57q32 -85 312 -85q110 0 259 13q264 25 518 72q453 85 726 84q306 0 386 -106q57 -69 57 -137q0 -72 -63 -142q-61 -68 -145 -109 q4 23 -19 52q-47 57 -192 86q-124 29 -296 29q-237 0 -564 -56q-47 -111 -47 -522q90 0 839 92q-115 -170 -258 -238q-72 -34 -120 -34h-3q-98 -20 -481 -47q-27 -162 -47 -1092q-90 0 -180 180q0 160 69 912q-258 16 -337 135q-33 47 -33 92q0 11 2 22q139 -29 267 -29 q62 0 122 7q10 141 49 522q-283 -42 -487 -42q-475 0 -516 230z" />
<glyph unicode="G" horiz-adv-x="1708" d="M53 532q33 354 291 615q-156 121 -190 285q-11 47 -11 92q0 79 33 149q57 127 207 191q91 38 197 38q127 0 274 -55l-10 -8q-82 17 -167 17q-53 0 -108 -7q-283 -37 -319 -262q-4 -27 -4 -53q0 -177 196 -293q344 355 748 355q65 0 131 -9q229 -31 311 -172 q33 -57 33 -112q0 -79 -68 -154q-127 -147 -403 -201q-99 -19 -197 -19q-212 0 -413 89q-41 16 -92 41q-178 -274 -178 -623q0 -45 3 -92q41 -371 451 -473q123 -31 232 -31q233 0 405 140l49 43l6 124q2 66 17 259q-68 -6 -166 -23q-102 -18 -123 -21q-9 -1 -17 -1 q-69 0 -114 57q-27 33 -37 67q6 23 145 58q110 28 195 28q32 0 61 -4q227 -31 267 -157q-16 -102 -93 -822q-37 -338 -82 -465q-45 -123 -170 -245q-121 -97 -315 -97q-25 0 -51 2q-262 14 -277 232v18q0 194 166 297q88 55 176 68l-4 -25q-139 -86 -180 -196 q-26 -71 -26 -129q0 -94 71 -152q59 -49 128 -49q55 0 116 31q186 74 258 415q33 164 49 541q-217 -164 -410 -201q-97 -15 -185 -15q-308 0 -519 183q-119 102 -234 322q-58 120 -58 297q0 53 5 112zM582 1176q187 -74 316 -74q28 0 54 4q177 0 308 57q170 74 170 215 q1 6 1 11q0 64 -88 81q-31 6 -71 6q-64 0 -150 -16q-305 -61 -448 -192q-49 -43 -92 -92z" />
<glyph unicode="H" horiz-adv-x="2420" d="M231 1325q186 199 783 287q203 31 395 39q67 3 108 3q61 0 62 -7q0 63 74 63q73 0 73 -61q0 -52 -58 -52h-11q47 -172 47 -743q204 -5 305 -5t100 5q33 350 220 1055q43 33 102 33q53 0 55 -15q-145 -322 -229 -1069q55 6 117 23q86 20 84 20q12 2 23 2q49 0 69 -45 q9 -20 9 -41q0 -61 -73 -137q-63 0 -258 -12q2 -16 2 -48q0 -48 -4 -133q-3 -76 -3 -137.5t3 -107.5q20 -328 191 -484q97 -89 185 -89q62 0 118 44q68 53 102 137l37 -8q-6 -96 -55 -192q-92 -177 -292 -177q-13 0 -26 1q-317 18 -393 565q-24 166 -24 349q0 141 14 292 l-385 2q-10 -223 -156 -471q-211 -366 -590 -366q-36 0 -73 3q-365 33 -433 273q-15 55 -15 108q0 64 22 125l32 8q-8 -46 -8 -87q0 -107 55 -177q68 -86 201 -102q43 -6 84 -5q234 0 412 179q236 240 256 498q-84 33 -154 116q-49 56 -49 76q0 7 6 10l228 -12 q39 174 63 733q-75 6 -149 6q-429 0 -801 -204q-193 -106 -250 -224q-22 -43 -22 -83q0 -76 79 -140q167 -136 394 -136q36 0 73 3q137 14 236 57q-152 -182 -447 -200q-35 -2 -69 -2q-215 0 -328 90q-188 150 -188 307q0 128 124 260z" />
<glyph unicode="I" horiz-adv-x="1533" d="M92 -285v18q0 196 168 343q88 78 176 114v-45q-147 -84 -180 -196q-22 -74 -22 -137q0 -142 112 -228q95 -74 217 -74q77 0 166 29q176 59 252 371q39 156 41 299q24 294 24 612q0 125 -4 254q0 477 132 672q-170 -55 -410 -262q-338 -293 -361 -606v-21q0 -222 190 -222 q21 0 44 3q121 12 244 80q1 -8 1 -15q0 -90 -132 -153q-154 -76 -275 -76q-48 0 -90 12q-141 41 -168 195q-7 36 -7 74q0 132 83 293q119 231 373 452q386 344 633 344h16q123 -6 168 -84q-63 -47 -115 -176q-82 -193 -100 -600q-25 -571 -43 -696q-35 -322 -107 -486 q-57 -131 -192 -264q-116 -97 -333 -97q-66 0 -142 9q-344 41 -359 264z" />
<glyph unicode="J" horiz-adv-x="1413" d="M-219 1626q-8 43 -8 80q0 183 184 236q72 20 139 20q109 0 207 -53q-59 5 -109 5q-113 0 -176 -28q-67 -32 -67 -92q0 -26 12 -57q32 -85 312 -85q111 0 260 13q264 25 518 72q321 71 535 71q246 0 351 -94q57 -69 57 -137q0 -71 -63 -141q-61 -68 -145 -109q4 23 -19 51 q-47 57 -192 86q-61 14 -147 21q-35 -49 -58 -109q-84 -193 -100 -600q-25 -571 -43 -696q-37 -322 -107 -486q-57 -131 -192 -264q-117 -109 -333 -109q-68 0 -146 11q-342 47 -355 274v18q0 196 166 343q88 78 178 115v-45q-147 -84 -180 -197q-23 -75 -23 -139 q0 -140 109 -226q95 -74 217 -74q78 0 166 29q176 59 254 371q39 156 43 299q24 301 24 626q0 118 -3 240q0 389 102 617q-199 -12 -365 -45q-284 -43 -488 -43q-474 0 -515 231z" />
<glyph unicode="K" horiz-adv-x="2498" d="M231 1325q186 199 783 287q203 31 395 39q67 3 108 3q61 0 62 -7q0 63 74 63q73 0 73 -61q0 -52 -58 -52h-11q47 -172 47 -743q-6 -2 84 -4h20q79 0 152 27q262 96 424 516q172 449 446 546q70 24 144 24t153 -24l-4 -20q-5 1 -10 1q-66 0 -193 -122q-147 -143 -198 -301 q-139 -432 -393 -602q-174 -115 -478 -137q385 -109 551 -424q213 -408 529 -531q119 -46 213 -46q31 0 59 5q23 -51 8 -45q-208 -93 -383 -93q-253 0 -438 194q-70 74 -328 567q-86 164 -239 244q-47 25 -97 39l-38 12q2 -7 2 -19q0 -40 -25 -141q-41 -160 -119 -297 q-216 -378 -594 -378q-36 0 -73 3q-365 33 -433 273q-15 55 -15 108q0 64 22 125l32 8q-8 -46 -8 -87q0 -107 55 -177q68 -86 201 -102q43 -6 84 -5q234 0 412 179q233 237 233 495v7q-84 33 -143 114q-37 52 -37 73q0 8 6 11l228 -12q55 172 63 733q-75 6 -149 6 q-429 0 -801 -204q-193 -106 -250 -224q-22 -43 -22 -83q0 -76 79 -140q167 -136 394 -136q36 0 73 3q137 14 236 57q-152 -182 -447 -200q-35 -2 -69 -2q-215 0 -328 90q-188 150 -188 307q0 128 124 260z" />
<glyph unicode="L" horiz-adv-x="1585" d="M-63 -84q18 109 108 199t205 118q109 20 224 20q285 0 611 -120q113 326 138 819q0 410 24 549q35 205 170 377q78 109 206 109q33 0 69 -7q190 -41 223 -292q5 -43 5 -86q0 -192 -99 -373q-61 -113 -127 -176q43 170 55 352q3 45 3 85q0 285 -144 341q-28 11 -53 11 q-118 0 -152 -259q-12 -84 -12 -401q0 -965 -97 -1182q270 -238 496 -348q165 -80 383 -81q15 0 31 1q186 6 301 55q-41 -80 -140 -157q-175 -138 -422 -138q-29 0 -59 2q-279 29 -512 183q-63 43 -149 112q-72 61 -95 72q-53 -80 -184 -143q-150 -71 -341 -71 q-139 0 -300 38q-370 109 -370 340q0 25 4 51zM41 -72q0 -133 127 -217q115 -74 287 -84q26 -2 51 -2q139 0 254 47q145 63 180 181q-144 123 -332 223q-132 71 -264 71l-108 -12q-195 -41 -195 -207z" />
<glyph unicode="M" horiz-adv-x="2639" d="M231 1325q186 199 777 287q201 31 391 39q66 3 107 3q60 0 61 -7q-2 10 -2 18q0 51 61 51h2q74 0 74 -63q0 -55 -27 -58q1 -9 1 -43q0 -68 -5 -235q-6 -162 -6 -292q0 -104 4 -187q25 -666 262 -723q17 -4 34 -4q227 0 402 763q229 995 229 1035q0 2 0 1.5t-1 -1.5 q43 33 102 33q53 0 56 -15q-145 -322 -209 -1059q-24 -429 -23 -530v-23q20 -385 215 -577q73 -74 144 -75q57 0 112 50q61 55 96 137l37 -8q-6 -96 -55 -192q-92 -177 -291 -177q-13 0 -26 1q-256 16 -357 376q-60 213 -60 520q0 48 1 99q-175 -527 -385 -527q-10 0 -21 1 q-238 29 -286 559q-135 -657 -684 -657q-40 0 -82 3q-365 29 -433 271q-15 55 -15 108q0 65 22 127l32 8q-8 -46 -8 -87q0 -107 55 -177q68 -86 201 -102q43 -6 84 -5q234 0 412 179q145 147 198 291q31 82 89 397q29 184 63 733q-75 6 -149 6q-429 0 -801 -204 q-193 -106 -250 -224q-22 -43 -22 -83q0 -76 79 -140q167 -136 394 -136q36 0 73 3q137 14 236 57q-152 -182 -447 -200q-35 -2 -69 -2q-215 0 -328 90q-188 150 -188 307q0 128 124 260z" />
<glyph unicode="N" horiz-adv-x="2342" d="M231 1325q186 199 783 287q203 31 395 39q67 3 108 3q61 0 62 -7q0 63 74 63q73 0 73 -61q0 -52 -58 -52h-11q23 -276 26 -340q285 -360 455 -671q-2 66 -2 120q0 82 4 138q11 324 101 631q150 502 445 502q15 0 30 -1q219 -20 286 -221q28 -83 28 -163q0 -18 -1 -36 l-37 -2q-23 86 -76 150q-55 67 -124 67q-61 0 -134 -53q-326 -244 -356 -1091q-13 -228 -13 -418q0 -425 66 -662q-6 -12 -57 -6q-57 8 -96 49q-37 395 -56 764q-141 289 -454 658q0 -1167 -733 -1167q-39 0 -80 3q-365 29 -433 271q-15 55 -15 108q0 65 22 127l32 8 q-8 -46 -8 -87q0 -107 55 -177q68 -86 201 -102q43 -6 84 -5q234 0 412 179q141 143 203 317q31 88 84 371q29 184 63 733q-75 6 -149 6q-429 0 -801 -204q-193 -106 -250 -224q-22 -43 -22 -83q0 -76 79 -140q167 -136 394 -136q36 0 73 3q137 14 236 57 q-152 -182 -447 -200q-35 -2 -69 -2q-215 0 -328 90q-188 150 -188 307q0 128 124 260z" />
<glyph unicode="O" horiz-adv-x="1562" d="M37 627q-5 55 -5 110q0 229 83 469q104 307 301 510q217 223 485 252q30 3 58 3q160 0 290 -95q117 -85 117 -197q0 -49 -23 -104q-143 76 -311 76q-36 0 -74 -4q-424 -39 -608 -600q-77 -233 -77 -429q0 -105 22 -200q55 -238 227 -340q93 -55 191 -54q74 0 151 31 q190 78 289 318q122 295 122 547q0 67 -9 131q-39 274 -193 319l195 158q45 -53 133 -101q126 -67 269 -67q55 0 112 10q-111 -131 -279 -131q-46 0 -96 10q47 -125 47 -270q0 -133 -39 -283q-80 -303 -272 -524q-205 -238 -436 -258q-22 -2 -44 -2q-239 0 -442 250 q-160 168 -184 465z" />
<glyph unicode="P" horiz-adv-x="1566" d="M25 1389q0 285 368 436q250 102 465 102q362 0 557 -90q333 -153 334 -560q0 -25 -2 -52q-31 -465 -537 -559q-130 -24 -258 -24q-122 0 -243 22l-50 -846q-131 0 -167 133l36 745q-57 8 -122 45q-57 33 -56 41q112 -10 182 -14l13 252q-29 -1 -56 -1q-464 0 -464 370z M106 1376q33 -285 441 -305l26 520q31 83 187 83q29 0 61 -3q-29 -66 -73 -594q74 6 124 19q17 -23 -6 -29l-123 -27l-22 -276q336 0 518 72q260 104 291 368q3 33 3 64q0 257 -183 411q-164 137 -404 148q-26 1 -53 1q-221 0 -438 -75q-348 -121 -349 -377z" />
<glyph unicode="Q" horiz-adv-x="1460" d="M37 627q-5 55 -5 110q0 229 83 469q104 307 301 510q217 223 485 252q30 3 58 3q160 0 290 -95q117 -85 117 -197q0 -50 -23 -104q-143 76 -311 76q-36 0 -74 -4q-424 -39 -608 -600q-81 -244 -81 -441q0 -235 116 -401q88 -125 223 -166q54 -16 108 -16q78 0 156 34 q3 -2 3 -3l-66 52q-24 17 -166 17q-50 0 -113 -2q138 98 285 98q103 0 211 -49q74 76 127 203q122 295 122 547q0 67 -9 131q-39 274 -193 319l195 158q45 -53 133 -101q126 -67 269 -67q55 0 112 10q-111 -131 -279 -131q-46 0 -96 10q47 -124 47 -267q0 -147 -49 -314 q-90 -319 -299 -539l-1 1q-5 0 425 -306q87 -63 197 -63q90 0 196 42q-16 -51 -65 -98q-86 -81 -224 -81q-25 0 -53 3q-211 20 -379 140q-55 39 -260 231q-137 -86 -273 -86q-41 0 -81 8q-197 35 -367 242q-160 168 -184 465z" />
<glyph unicode="R" horiz-adv-x="1693" d="M25 1389q0 285 368 436q250 102 465 102q362 0 557 -90q333 -153 334 -560q0 -25 -2 -52q-33 -502 -612 -572q152 -100 245 -286q203 -408 545 -514q76 -23 303 -23q23 -51 8 -45q-207 -93 -382 -93q-252 0 -437 193q-72 74 -330 568q-66 119 -157 190q-129 4 -221 21 l-50 -846q-131 0 -167 133l36 745q-57 8 -122 45q-57 33 -56 41q112 -10 182 -14l13 252q-29 -1 -56 -1q-464 0 -464 370zM106 1376q33 -285 441 -305l26 520q31 83 187 83q29 0 61 -3q-29 -66 -73 -594q74 6 124 19q17 -23 -6 -29l-123 -27l-22 -276q336 0 518 72 q260 104 291 368q3 33 3 64q0 257 -183 411q-164 137 -404 148q-26 1 -53 1q-221 0 -438 -75q-348 -121 -349 -377z" />
<glyph unicode="S" horiz-adv-x="1935" d="M41 1640v15q0 308 311 308q15 0 31 -1q174 -8 350 -84q24 -20 -35 -20q-25 0 -84 6l-100 8q-25 2 -48 2q-93 0 -142 -27q-121 -69 -121 -199q0 -24 4 -49q25 -158 164 -223q96 -43 250 -80q-16 39 -16 87q0 56 22 126q82 246 409 295q60 9 114 9q238 0 343 -171 q68 -109 68 -193q0 -78 -58 -136q-84 -84 -274 -117q-68 -11 -178 -11q-88 0 -203 7q35 -86 151 -197q63 -59 215 -176q162 -127 236 -192q272 -246 309 -480q7 -42 6 -82q0 -205 -172 -384q-215 -223 -571 -259q-51 -5 -99 -5q-227 0 -391 112q-147 100 -344 385 q-10 25 9 51q18 27 53 12q43 -18 147 -127q102 -113 203 -153q141 -58 272 -58q86 0 168 25q193 59 289 232q65 112 65 239q0 67 -18 139q-57 227 -289 414q-348 283 -442 529q-236 41 -403 145q-195 121 -201 278zM807 1274q99 -11 185 -11q196 0 323 56q147 65 147 173 q0 18 -4 38q-16 84 -149 135q-73 29 -149 29q-85 0 -173 -37q-200 -84 -200 -261q0 -56 20 -122z" />
<glyph unicode="T" horiz-adv-x="1429" d="M78 1599q-8 43 -8 80q0 183 184 236q72 20 139 20q109 0 207 -53q-62 6 -113 6q-111 0 -172 -28q-67 -32 -68 -93q0 -26 13 -57q32 -85 312 -85q110 0 259 13q264 25 519 72q453 85 726 84q306 0 386 -106q57 -69 57 -137q0 -72 -63 -142q-61 -68 -146 -109q4 23 -18 52 q-47 57 -193 86q-124 29 -296 29q-237 0 -564 -56q-94 -696 -117 -1841q-90 0 -180 180q0 399 62 877q70 528 77 784q-283 -42 -487 -42q-475 0 -516 230z" />
<glyph unicode="U" horiz-adv-x="1521" d="M-4 1718q29 76 160 154q83 48 156.5 48t138.5 -48q45 -38 45 -175q0 -106 -27 -270q-20 -117 -66 -337q-51 -244 -67 -330q-27 -145 -27 -269q0 -119 25 -217q53 -219 207 -229q256 20 446 713q51 182 127 540q66 305 94 388q33 -72 193 -130q-139 -383 -182 -888 q-13 -162 -13 -301q0 -310 66 -506q14 -16 6 -27q-8 -14 -49 4q-148 270 -148 641q0 147 23 309q5 -12 5 -32q0 -114 -167 -465q-220 -467 -483 -467h-2h-20q-265 0 -339 254q-28 98 -28 240q0 157 34 368q6 51 138 672q49 232 49 349q0 59 -12 89q-21 25 -54 25 q-41 0 -100 -41q-53 -37 -96 -86z" />
<glyph unicode="V" horiz-adv-x="1454" d="M-311 1126q35 150 131 269q96 117 207 143q91 18 168 18q341 0 401 -362q35 -219 35 -516q82 18 131 43q-72 -72 -131 -111q0 -110 -8 -329q-5 -149 -5 -215v-19q6 -172 80 -264q49 -63 113 -62q42 0 90 27q106 84 199 389q98 332 98 688q0 506 -96 942q25 41 78 74 q65 42 146 42q51 0 108 -17q20 -249 20 -465q0 -399 -68 -690q-244 -1053 -589 -1129q-11 -1 -21 -1q-198 0 -307 415q-74 283 -74 491v23q-62 -13 -124 -13q-171 0 -345 95q-166 82 -225 237q-29 75 -29 161q0 65 17 136zM-211 1194q-19 -80 -19 -151q0 -75 21 -140 q70 -225 369 -248q105 -6 188 -7q21 0 41 1q-45 780 -262 781q-152 -1 -254 -101q-70 -70 -84 -135z" />
<glyph unicode="W" horiz-adv-x="2062" d="M6 1468q18 80 125 152q102 68 217 82q26 3 49 3q89 0 140 -48q49 -48 49 -134q0 -45 -13 -100q-78 -481 -86 -1030q-1 -42 -1 -81q0 -644 170 -644q16 0 34 6q158 41 271 207q-69 222 -69 579q0 188 19 414q49 559 86 596l21 154q2 14 47 16q12 1 25 1q38 0 77 -9 q147 -37 162 -157q-137 -854 -155 -1057q-23 -226 -22 -384q0 -366 121 -365q15 0 32 5q332 23 456 871q65 445 65 694q0 151 -24 229q-145 0 -243 74q-68 51 -72 150v7q0 88 49 163q53 82 135 90q9 1 17 1q86 0 176 -91q92 -94 133 -281q449 131 667 229q215 70 428 70 q102 0 203 -16q340 -57 404 -273q-306 33 -561 33q-397 0 -666 -80q-190 -47 -461 -47q19 -133 19 -273q0 -446 -193 -966q-119 -317 -268 -502q-156 -189 -315 -189q-10 0 -21 1q-141 29 -223 190q-136 -191 -355 -191q-18 0 -37 1q-367 76 -411 967q-9 172 -9 330 q0 376 52 667q-21 22 -56 22q-39 0 -94 -28q-92 -45 -94 -58zM1647 1780q-20 -33 -20 -62q0 -43 46 -73q56 -36 120 -36q12 0 24 1q5 22 5 42q0 69 -57 126q-37 39 -67 39q-29 0 -51 -37z" />
<glyph unicode="X" horiz-adv-x="1601" d="M-84 647q238 263 238 879q-6 45 112 108q75 40 134 40q41 0 75 -19q289 -854 350 -946q496 795 791 1103q27 -2 43 -12q18 -10 18 -23q0 -14 -20 -32q-760 -1153 -760 -1167q0 -108 254 -332q158 -141 293 -141q78 0 147 47q3 -10 3 -22q0 -44 -42 -105 q-63 -92 -163 -115q-32 -7 -65 -7q-271 0 -609 498q-176 -395 -598 -790q-80 20 -129 168q571 586 594 762q2 12 2 26q0 187 -305 727q-25 -334 -291 -676q-19 -8 -33 -8q-30 0 -39 37z" />
<glyph unicode="Y" horiz-adv-x="2004" d="M55 911q113 457 525 762q129 96 232 96q75 0 136 -51q109 -88 109 -194q13 -96 13 -269q0 -283 -34 -774q-3 -42 -3 -77q0 -149 48 -181q13 -9 29 -9q49 0 121 93q260 360 373 836q37 158 67 383l51 342q160 -20 224 -105q-68 -246 -134 -968q-72 -803 -106 -988 l588 -131q191 -42 366 -42q153 0 293 32q-51 -76 -147 -149q-180 -134 -390 -134q-20 0 -40 1q-143 8 -363 127q-291 158 -338 174q-128 -397 -468 -397q-20 0 -40 1q-195 12 -231 162q-8 35 -8 70q0 50 16 100q31 86 121 141q115 71 299 71q85 0 184 -15q18 119 54 534 q20 211 20 539q-348 -825 -565 -825q-20 -3 -38 -3q-242 0 -242 497q0 32 1 67q6 186 43 444q39 266 39 256q9 68 9 130q0 46 -5 89q-18 137 -93 137q-36 0 -83 -30q-262 -158 -436 -502q-66 -113 -78 -260q-3 -31 -3 -58q0 -97 40 -135q12 -45 -21 -24l5 -6 q-139 115 -140 243zM1053 -504q36 -99 184 -99q11 0 23 1q176 10 233 170q12 31 37 166q-74 20 -148 26q-34 3 -64 3q-139 0 -216 -70q-63 -55 -63 -126q0 -34 14 -71z" />
<glyph unicode="Z" horiz-adv-x="1650" d="M84 59q31 172 186 220q59 32 136 32q174 0 440 -164q207 160 424 601q295 590 387 727q-166 -16 -293 -41q-284 -43 -488 -43q-474 0 -516 231q-8 42 -8 79q0 184 187 236q71 20 139 20q108 0 205 -52q-59 5 -109 5q-113 0 -176 -28q-66 -32 -67 -93q0 -25 12 -56 q34 -85 314 -86q111 0 259 14q262 25 516 72q131 27 299 45q160 129 357 190q-72 -94 -129 -174h24q263 0 359 -84q56 -66 56 -131q0 -74 -73 -147q-66 -68 -158 -109q6 23 -18 51q-47 57 -192 86q-82 18 -201 23q-80 -131 -232 -391q-150 -260 -225 -379 q-262 -426 -500 -650q387 -152 631 -210q139 -34 307 -34q76 0 158 7q221 20 328 65q-59 -96 -176 -190q-215 -168 -472 -168q-25 0 -51 2q-414 41 -938 371q-100 -115 -235 -162q-72 -25 -138 -25q-82 0 -155 39q-179 96 -179 250q0 25 5 51zM233 35q0 -3 -1 -6 q0 -64 44 -109q43 -43 115 -51q18 -2 35 -1q147 0 250 138q-33 55 -144 127q-64 42 -127 42q-35 0 -71 -13q-94 -35 -101 -127z" />
<glyph unicode="_" horiz-adv-x="1320" d="M104 92q-16 80 11 137q33 -57 207 -82q647 -90 884 -22l6 -80q-84 -74 -536 -84q-426 -10 -502 25q-51 25 -70 106z" />
<glyph unicode="`" d="M166 1673q-31 47 0 127q29 76 82 111q-4 -67 129 -182q205 -176 354 -236l-43 -80q-113 -14 -307 94q-174 98 -215 166z" />
<glyph unicode="a" horiz-adv-x="915" d="M31 348q-1 18 -1 36q0 199 120 398q129 215 292 260q34 9 66 9q237 0 237 -177q0 -6 -67 -6h-11q-79 0 -141 -26q-227 -96 -272 -537q-3 -37 -3 -68q0 -154 79 -154q5 0 10 1q80 8 160 113q109 141 141 608l135 -39q-31 -387 -31 -461q0 -102 64 -182q31 -41 67 -41 q56 0 123 98l9 -6q-47 -174 -174 -188q-15 -2 -30 -2q-132 0 -161 151q-9 45 -9 90q0 40 7 80q-45 -109 -117 -203q-103 -137 -199 -137q-36 0 -71 19q-209 115 -223 364z" />
<glyph unicode="b" horiz-adv-x="925" d="M88 311q29 150 47 883q9 362 9 542t-9 179q119 0 232 -92q-59 -838 -82 -1098q51 217 239 260q19 4 39 4q61 0 129 -41q94 -57 148 -164q52 -106 53 -222q0 -187 -137 -402q-180 -242 -350 -242q-73 0 -144 45q-88 55 -139 166q-38 79 -38 145q0 19 3 37zM274 459 q-9 -87 -9 -158q0 -288 151 -301h7q63 0 130 96q66 94 111 240q48 160 48 271q0 130 -67 190q-57 41 -110 41q-81 0 -152 -97q-90 -125 -109 -282z" />
<glyph unicode="c" horiz-adv-x="825" d="M55 561q27 172 135 311q106 135 242 177q48 14 92 14q89 0 164 -57q31 -23 53 -91q19 -55 18 -103q0 -15 -1 -30q-11 -106 -107 -106q-55 0 -137 35q110 126 110 187q0 26 -20 40q-17 12 -38 12q-36 0 -83 -37q-70 -55 -133 -165q-115 -200 -115 -367q0 -56 13 -109 q45 -188 201 -237q43 -14 87 -13q130 0 273 115q12 13 18 13q7 0 7 -16q0 -14 -5 -42q-119 -96 -268 -131q-56 -13 -107 -13q-221 0 -343 247q-64 129 -64 268q0 48 8 98z" />
<glyph unicode="d" horiz-adv-x="954" d="M66 289q-6 45 -6 90q0 152 65 305q84 203 225 279q64 34 128 33q96 0 194 -74q57 823 114 1060q26 10 51 10q72 0 128 -83h-1q-52 0 -108 -905q-20 -325 -20 -565q0 -453 71 -597q-6 -32 -56 -32h-3q-137 242 -146 372q-43 -100 -120 -176q-87 -86 -184 -86 q-76 0 -156 53q-152 98 -176 316zM242 266q27 -168 96 -203q42 -22 79 -22q88 0 152 123q78 147 78 379v12q0 219 -74 289q-24 22 -51 22q-73 0 -174 -157q-114 -177 -115 -350q1 -47 9 -93z" />
<glyph unicode="e" horiz-adv-x="845" d="M33 483q23 336 293 486q92 50 178 50q20 0 39 -3q109 -14 159 -111q43 -80 43 -157q0 -144 -153 -275q-86 -74 -186 -113q-61 -25 -96 -25q-19 0 -31 7q-1 -13 -1 -25q0 -147 119 -251q51 -44 104 -45q98 0 201 155q7 10 7 40q0 22 -4 56l-9 72q17 2 32 2q92 0 120 -63 q0 -51 -57 -146q-94 -156 -279 -188q-38 -7 -74 -7q-188 0 -305 183q-101 156 -101 320q0 19 1 38zM274 414h7q120 0 270 237q68 104 70 178v7q0 77 -82 94q-9 2 -18 2q-105 0 -195 -254q-37 -98 -52 -186q-8 -42 -8 -62q0 -16 6 -17q1 0 2 1z" />
<glyph unicode="f" horiz-adv-x="622" d="M-84 991q8 18 223 51q68 571 70 904l201 -101q-98 -539 -129 -786q88 9 153 9q94 0 139 -19q113 -47 142 -111q12 -33 4 -55q-21 16 -137 16q-109 0 -301 -14q6 -16 122 -236q131 -246 146 -692q1 -40 1 -79q0 -424 -140 -646q-110 -172 -221 -172h-5q-119 6 -141 215 q-15 149 -15 346q0 481 91 1253q-25 0 -33 3q-129 16 -170 114zM162 -86q-10 -193 -10 -336q0 -402 77 -412h4q77 0 109 408q16 207 16 418q-23 573 -129 684q-32 -90 -67 -762z" />
<glyph unicode="g" horiz-adv-x="901" d="M-203 -741l27 8q54 -273 254 -273q87 0 201 52q229 102 311 655q27 180 31 371q1 50 1 84q0 78 -6 77q-115 -195 -286 -245q-27 -13 -53 -13q-54 0 -105 54q-72 76 -102 221q-20 93 -20 179q0 248 167 443q155 180 283 180q50 0 96 -28q82 -51 119 -152q-22 3 -44 3 q-148 0 -284 -146q-170 -180 -170 -444q0 -206 87 -206q10 0 22 3q76 20 176 151q76 96 155 529q170 0 224 -51q-53 -211 -90 -1041q-4 -168 -66 -346q-121 -358 -395 -414q-78 -18 -145 -18q-197 0 -306 152q-72 100 -82 215z" />
<glyph unicode="h" horiz-adv-x="999" d="M66 -16q10 -6 90 985q71 857 71 1011q0 24 -2 31l19 -2q102 -176 196 -194q-152 -758 -152 -1085q0 -110 17 -171q-1 0 -1 1q0 8 36 71q47 80 109 166q174 240 253 243q8 1 16 1q86 0 111 -60q8 -23 8 -47q0 -10 -1 -19q-90 -408 -90 -612q0 -168 61 -199q14 -4 28 -4 q84 0 166 140l7 -21q-80 -170 -174 -221q-35 -19 -70 -19q-101 0 -193 166q-39 72 -39 197q0 201 101 537q-1 1 -2 1q-17 0 -142 -167q-172 -229 -243 -568q-39 -187 -39 -245q0 -12 2 -19z" />
<glyph unicode="i" horiz-adv-x="456" d="M168 1001q66 -4 123 -14q86 -17 86 -43q0 -9 -10 -18q-74 -72 -93 -426q-2 -37 -1 -72q0 -338 159 -446l-41 -43q-127 49 -205 237q-66 161 -66 389q0 194 48 436zM219 1196q3 37 19 72q35 71 112 71h2q63 0 94 -53q20 -34 20 -70q0 -13 -3 -26q-25 -109 -121 -115h-11 q-88 0 -112 121z" />
<glyph unicode="j" horiz-adv-x="659" d="M-551 -682l27 8q31 -158 125 -231q65 -51 153 -51t201 51q268 121 334 907q20 252 20 596v242q-1 62 -1 103t1 63q170 0 221 -80q-16 -106 -47 -682q-29 -518 -41 -514q-4 -168 -65 -346q-121 -358 -395 -414q-78 -18 -146 -18q-196 0 -305 151q-72 100 -82 215z M301 1272q2 36 18 71q35 72 115 72q63 0 94 -53q20 -34 20 -70q0 -13 -3 -26q-25 -109 -121 -115h-11q-88 0 -112 121z" />
<glyph unicode="k" horiz-adv-x="874" d="M-47 823l86 54q53 33 84 53q16 205 29 309q57 528 200 653q87 78 152 78q51 0 88 -49q53 -72 53 -217q0 -80 -16 -182q-55 -317 -357 -551l13 -299q53 137 145 262q111 151 211 151q47 0 92 -34q98 -75 97 -174q0 -71 -50 -154q-100 -168 -317 -285v-11q0 -110 39 -216 q84 -262 354 -332q88 -22 156 -22q118 0 178 65q-86 -123 -209 -203q-103 -66 -194 -66q-128 0 -234 128q-84 135 -119 272l-80 338q-43 -16 -88 -16q-10 -233 -10 -494l-154 92q-4 126 -4 261q0 297 21 634q-80 -45 -162 -80zM272 1057q143 162 215 452q39 135 39 212 q0 46 -14 71q-14 27 -39 18q-25 -8 -45 -41q-152 -248 -156 -712zM326 528h1q119 0 248 187q51 78 68 141q6 24 6 41q0 33 -22 45q-12 8 -26 8q-65 0 -167 -186q-61 -113 -108 -236z" />
<glyph unicode="l" horiz-adv-x="716" d="M16 109h2q32 0 152 161q-31 213 -31 418q0 513 195 979q135 322 274 322q25 0 51 -11q143 -61 166 -311q3 -27 3 -57q0 -178 -91 -457q-209 -532 -403 -776q4 -383 112 -567q78 -133 197 -132q67 0 148 41q88 45 139 158l26 -12q-53 -193 -208 -260q-72 -31 -138 -31 q-41 0 -80 12q-252 88 -348 621q-94 -90 -145 -135zM336 522q100 176 145 303q106 301 174 613q17 90 17 161q0 67 -15 119q-12 43 -28 56q-18 14 -33 -9q-98 -104 -215 -802q-39 -236 -45 -441z" />
<glyph unicode="m" horiz-adv-x="1386" d="M-55 784q112 180 278 207q141 0 141 -299q0 -36 -2 -76q-16 -330 -81 -436q193 352 243 758q44 58 159 58q33 0 71 -5v-657q244 631 389 725q133 -47 133 -94q-146 -271 -146 -573q0 -91 13 -185q37 -270 270 -342q81 -25 147 -25q98 0 164 56q-90 -133 -213 -218 q-95 -63 -176 -63q-130 0 -225 160q-149 228 -149 557v30q2 176 36 304q-193 -432 -243 -637q-64 -38 -96 -38q-12 0 -19 5q-76 203 -76 475q0 137 19 293q-193 -688 -281 -768q-25 -16 -54 -16q-33 0 -71 20q-68 35 -67 76q27 25 57 604q2 17 2 33q0 95 -64 116 q-17 6 -35 6q-55 0 -124 -51z" />
<glyph unicode="n" horiz-adv-x="1017" d="M-10 838q25 47 69 84q47 38 97 38q43 0 88 -28q84 -84 96 -275q2 -32 2 -64q0 -103 -20 -200q199 539 348 635q39 -4 73 -20q56 -28 56 -77q0 -13 -4 -26q-53 -76 -68 -399q-2 -44 -2 -83q0 -278 100 -310q16 -3 30 -3q76 0 120 80l12 -22q-16 -61 -59 -115 q-62 -72 -149 -72q-39 0 -83 15q-125 31 -166 289q-18 112 -18 209q0 57 6 108q-61 -90 -145 -350q-88 -272 -129 -340q-86 33 -183 51q104 662 105 803q0 102 -49 108h-3q-35 0 -110 -51z" />
<glyph unicode="o" horiz-adv-x="942" d="M27 434v15q0 243 123 399q150 186 360 186q102 0 160 -49q39 -35 39 -84q0 -30 -15 -65q-46 20 -97 20q-37 0 -77 -10q-195 -47 -291 -340q-39 -121 -39 -216q0 -40 7 -75q20 -104 92 -143q35 -18 71 -18.5t74 18.5q80 41 123 143q55 129 55 245q0 54 -12 105 q-33 139 -119 164l174 82q75 -88 199 -88q32 0 68 6q8 -16 -2 -41q-23 -45 -115 -78q9 -30 9 -65q0 -76 -40 -176q-59 -147 -166 -258q-117 -121 -239 -134q-14 -2 -28 -2q-124 0 -228 127q-82 109 -86 332z" />
<glyph unicode="p" horiz-adv-x="1028" d="M-53 -1100l250 2130l186 -33l16 -120q39 55 103 104q97 76 193 76q28 0 55 -6q152 -66 170 -318q59 29 110 41l-4 -57q-43 -20 -102 -55q0 -98 -27 -242q-55 -262 -199 -387q-96 -85 -190 -85q-19 0 -37 3q-105 18 -105 153q0 13 1 27q10 141 92 264q76 113 276 240 q-6 117 -30 156q-30 51 -81 51q-43 0 -100 -35q-135 -82 -186 -287q-185 -739 -185 -1272l27 -382q0 -20 -33 -20q-55 0 -200 54zM485 76q12 -25 32 -25q39 0 108 99q96 141 108 391q-195 -141 -237 -267q-26 -74 -26 -128q0 -41 15 -70z" />
<glyph unicode="q" horiz-adv-x="892" d="M135 244q-21 96 -21 185q0 250 167 443q154 180 280 180q50 0 96 -28q82 -51 121 -152q-22 3 -44 3q-147 0 -285 -146q-168 -180 -168 -444q0 -206 84 -206q11 0 22 3q76 20 178 151q76 96 156 529q170 0 223 -51q-220 -775 -220 -1248q0 -60 3 -114q14 -164 57 -248 q35 -78 83 -78q34 0 75 41q86 88 105 227l28 -14q-8 -137 -55 -262q-79 -201 -228 -201q-36 0 -77 12q-139 43 -164 365q-4 66 -4 135q0 150 20 316q59 487 105 579q-129 -203 -271 -246q-27 -13 -53 -13q-55 0 -106 56q-74 78 -107 226z" />
<glyph unicode="r" horiz-adv-x="880" d="M6 735q27 31 55 70q-17 40 -17 97q0 31 5 67q16 121 70 176q35 38 76 38q12 0 24 -3q53 -14 76 -72q11 -28 12 -59q0 -38 -18 -80l-64 -82q44 -16 98 -16q23 0 48 3q160 20 241 185q31 -16 54 -43q26 -30 26 -59q0 -24 -18 -48q-51 -102 -92 -284q-30 -136 -30 -236 q0 -76 17 -131q26 -91 80 -91q31 0 72 30q98 72 139 206l25 -18q-29 -133 -97 -250q-95 -164 -221 -164q-51 0 -108 27q-96 46 -96 206q0 93 32 224q80 330 123 346q11 3 -55 -20q-59 -20 -113 -33q-62 -14 -112 -14q-86 0 -136 41q-31 -29 -69 -56z" />
<glyph unicode="s" horiz-adv-x="978" d="M-147 37q221 205 327 420q127 252 158 622q23 35 65 62q53 33 114 33q41 0 87 -15q6 -1 6 -10q0 -16 -20 -59q-37 -80 -37 -103q0 -96 86 -209q55 47 147 82q25 0 25 -22q-86 -61 -131 -111q141 -176 176 -246q50 -103 50 -212q0 -60 -15 -122q-18 -76 -117 -131 q-94 -51 -215 -59q-23 -2 -45 -2q-99 0 -174 37q-104 49 -129 155q-7 28 -7 57q0 119 113 271q70 94 148 162q-82 137 -82 252q-12 -143 -135 -430q-162 -377 -354 -471q-42 5 -42 38q0 5 1 11zM391 346q-47 -98 -47 -161q0 -76 68 -103q37 -15 70 -15q65 0 116 56 q60 63 60 144q0 19 -3 38q-8 51 -57 125q-70 102 -78 121q-76 -99 -129 -205z" />
<glyph unicode="t" horiz-adv-x="692" d="M-115 1073q-6 30 -6 56q0 45 17 81q32 -57 206 -82q45 -8 72 -10q37 276 86 680q213 -38 213 -69t-131 -631q232 -27 355 -27q66 0 102 8l4 -45q-96 -82 -494 -90q-71 -357 -71 -586v-6q25 -311 221 -313q72 0 133 41q59 41 59 84l51 -12q0 -61 -112 -154 q-91 -73 -192 -73q-58 0 -119 24q-178 88 -183 446v11q0 155 54 538q-156 4 -195 23q-51 25 -70 106z" />
<glyph unicode="u" horiz-adv-x="985" d="M129 547q43 379 92 428q78 20 128 20q53 0 75 -22q-57 -53 -123 -551q-15 -114 -15 -189q0 -64 11 -100q13 -42 40 -43q34 0 91 68q-2 -3 -3 -3t-1 3q0 44 319 856l111 -6q103 -7 103 -29q0 -2 -1 -4q-90 -219 -139 -465q-27 -130 -27 -217q0 -182 115 -182h8q53 2 99 84 v-11q0 -153 -105 -178q-35 -8 -66 -8q-124 0 -179 125q-39 86 -39 205q3 -2 3 -7q0 -20 -42 -90q-55 -96 -127 -168q-105 -104 -185 -104q-83 0 -141 111q-24 45 -24 168q0 119 22 309z" />
<glyph unicode="v" horiz-adv-x="813" d="M55 492v28q0 219 29 434q52 30 102 30q40 0 78 -19q43 -20 66 -54q-41 -219 -66 -432q-16 -143 -16 -234q0 -156 47 -156q6 0 14 3q143 53 226 238q41 92 53 174q-57 119 -76 246q-6 39 -6 73q0 185 170 221q25 5 46 5q87 0 86 -97q0 -38 -13 -90q-4 -14 -127 -319 q-1 -3 -1 -6q0 -36 113 -158l-4 -25q-90 16 -131 92q-31 -115 -98 -227q-135 -229 -320 -229q-168 31 -172 502zM612 770q-1 -17 -1 -33q0 -96 22 -121q2 -6 20 41q18 49 31 105q15 64 15 101q0 49 -27 48h-4q-49 -6 -56 -141z" />
<glyph unicode="w" horiz-adv-x="1157" d="M41 479q-7 102 -7 203q0 145 15 285q14 65 85 65q13 0 28 -2q92 -14 92 -63q0 -16 -10 -78q-14 -74 -19 -137q-5 -62 -5 -130q0 -178 34 -399q36 -175 91 -176q5 0 9 2q61 18 107 223q52 240 52 581q0 56 -1 114q28 55 94 55q13 0 27 -2q45 -6 84 -27q-36 -161 -35 -328 q0 -153 29 -311q25 -143 67 -166q8 -4 15 -4q42 0 90 125q34 89 34 268q0 219 -51 572q59 33 121 43q19 3 35 3q92 0 104 -97q14 -53 14 -128q0 -189 -89 -515q-133 -489 -306 -490q-145 33 -178 332q-9 86 -9 168q0 62 5 123q-12 -180 -51 -355q-72 -322 -186 -322 q-10 0 -21 3q-227 66 -264 565z" />
<glyph unicode="x" horiz-adv-x="854" d="M-82 449q4 12 35 71q31 57 49 105q61 156 61 317q6 41 123 100q75 38 113 38q23 0 33 -13q53 -475 90 -504q262 395 428 574q61 -26 61 -51q0 -10 -10 -19q-405 -631 -405 -657q0 -76 122 -195q90 -87 166 -87q42 0 80 26q2 -6 2 -13q0 -27 -26 -71q-37 -66 -95 -93 q-32 -14 -66 -14q-146 0 -317 260q-76 -190 -301 -405q-80 25 -102 125q14 -2 145 186q137 199 152 268q2 13 2 29q0 115 -125 383q-14 -190 -162 -387q-17 -8 -28 -8q-24 0 -25 35z" />
<glyph unicode="y" horiz-adv-x="1021" d="M-375 -774q33 162 199 266q188 116 505 116q98 0 208 -11l116 -13q61 227 68 508q0 -6 -115 -61q-122 -57 -213 -57q-10 0 -20 1q-212 15 -212 359q0 170 52 420q13 63 13 105q0 78 -46 78q-22 0 -53 -17q-98 -51 -172 -150q-10 4 -29 27q29 88 146 170q111 79 230 79 q32 0 65 -6q78 -14 78 -183q0 -102 -29 -261q-57 -312 -57 -431q0 -55 12 -69q18 -19 65 -19q37 0 90 11q135 27 195 96q59 537 59 807q0 24 82 24q17 0 37 -1q119 -6 123 -37q4 -27 4 -65q0 -304 -260 -1340q176 -20 479 -66q242 -37 352 -45q83 -8 166 -8q238 0 482 62 q18 4 6 -15q-12 -20 -51 -49q-106 -84 -273 -135q-208 -67 -442 -67q-357 0 -776 155q-109 -256 -236 -391q-195 -207 -475 -207q-248 0 -338 152q-45 77 -45 173q0 45 10 95zM-158 -944q42 -152 191 -152h8q143 6 291 129q174 145 274 406q-129 38 -257 38q-77 0 -154 -14 q-174 -33 -254 -110q-110 -104 -110 -222q0 -37 11 -75z" />
<glyph unicode="z" horiz-adv-x="972" d="M31 31q-4 9 -4 18q0 33 59 49q23 6 78 17q61 10 90 16q86 80 235 377q41 78 76 272q-161 -54 -265 -54q-75 0 -120 28q-61 -53 -86 -70l-26 43l61 78q-23 41 -23 99q0 27 5 57q10 86 57 124q31 25 71 25q12 0 25 -2q51 -10 78 -51q18 -26 17 -54q0 -21 -9 -42l-63 -82 q53 -29 125 -29q141 2 223 151v17q36 13 70 13q81 0 151 -75q-145 -420 -274 -581q-131 -174 -209 -244q78 2 144 2q282 0 362 -41q51 -27 71 -106q8 -32 8 -61q0 -39 -16 -70q-279 143 -723 153q-36 -2 -65 -2q-113 0 -123 25z" />
<glyph unicode="&#xab;" horiz-adv-x="722" d="M63 524q-2 -8 101 183q109 203 151 333q0 -16 84 -16q23 8 -22 -154q-47 -176 -127 -303q-23 -41 135 -432q-4 20 -113 -43q-70 256 -209 432zM373 567q-2 -12 86 123q96 143 135 277q-4 -16 90 -17l-27 -145q-27 -160 -69 -240q6 14 80 -383q-4 21 -86 -14 q-68 221 -209 399z" />
<glyph unicode="&#xad;" horiz-adv-x="782" d="M76 571q-16 80 10 138q33 -57 207 -82q270 -37 426 -4l6 -93q-86 -74 -307 -88q-199 -12 -273 23q-51 25 -69 106z" />
<glyph unicode="&#xbb;" horiz-adv-x="780" d="M104 909q4 -20 82 17q74 -205 213 -363q2 10 -75 -123q-82 -139 -113 -264q0 10 -82 10q-2 -2 16 138q16 152 54 229q8 16 -95 356zM369 967q4 -21 102 45q78 -236 217 -394q2 8 -86 -178q-92 -195 -123 -319q0 10 -82 10q-20 -10 13 145q37 170 106 291q6 14 -147 400z " />
<glyph unicode="&#x401;" horiz-adv-x="1576" d="M104 -135q-86 279 76 522q168 264 395 406q-152 94 -200 213q-55 88 -39 229q25 199 215 344q-115 68 -141 160q-20 74 16 135q43 72 154 108q145 45 344 -10l-6 -6q-98 16 -201 6q-207 -18 -236 -145q-27 -119 152 -199q270 158 688 107q74 -10 121 -49q63 -53 0 -121 q-98 -106 -297 -121q-193 -12 -420 63l-68 23q-147 -178 -129 -400q23 -150 207 -260q162 66 357 84q416 41 442 -106q10 -172 -260 -207q-256 -33 -537 74q-113 -88 -241 -256q-174 -305 -50 -627q86 -186 275 -276q176 -82 393 -60q217 23 397 142q193 129 285 333 q41 -109 -4 -245q-90 -276 -520 -420q-434 -133 -787 84q-174 109 -264 243q-74 92 -117 232zM727 1571q193 -59 295 -47q162 0 209 8q106 20 106 96q-6 66 -198 62q-180 -6 -318 -58q-49 -20 -94 -61zM850 1847q4 97 98 97q47 0 70 -37q20 -31 12 -66q-16 -76 -86 -80 q-74 -4 -94 86zM883 805q141 -49 284 -39q209 11 203 70q-6 23 -80 34q-70 12 -131 9q-150 -12 -276 -74zM1141 1870q4 96 98 96q47 0 70 -37q20 -31 12 -65q-16 -76 -86 -80q-74 -4 -94 86z" />
<glyph unicode="&#x410;" horiz-adv-x="2408" d="M51 184q-4 80 17 144h32q0 -324 398 -324q520 -47 833 518q-166 -10 -323 0q-305 16 -465 152q-80 68 -99 131q-37 104 -26 223q23 238 264 318q332 80 532 -17l-24 -29q-256 49 -391 19q-244 -37 -277 -268q-39 -256 266 -340q236 -66 623 -23q94 215 201 602 q47 172 164 709q53 25 102 0q31 -176 78 -578q49 -426 84 -628q205 -12 325 -115h-20q-86 25 -285 -8q156 -823 557 -1030q-637 -80 -772 987q-66 -14 -110 -27q-84 -31 -222 -55q-184 -418 -440 -600q-240 -168 -526 -140q-227 23 -375 140q-115 80 -121 239zM1577 713 q117 18 219 49l33 8q-20 197 -33 526q-12 315 -20 408q-29 -295 -187 -954z" />
<glyph unicode="&#x411;" horiz-adv-x="1988" d="M-381 1599q-45 252 176 316q188 53 346 -33q-192 18 -305 -41q-115 -61 -74 -168q45 -119 588 -78q270 20 533 64q899 209 1130 0q117 -141 -10 -264q-63 -61 -152 -95q4 23 -18 52q-47 57 -193 86q-297 70 -856 -19q-23 -84 -47 -471q983 322 1194 -207q82 -209 31 -411 q-53 -201 -221 -338q-391 -319 -1059 -111q-14 -293 -18 -311q-90 0 -181 180q0 92 6 205l-135 59q8 8 21 74l121 -35q18 246 73 787q51 475 54 571q-944 -141 -1004 188zM688 16q535 -86 817 90q242 150 205 406q-35 248 -295 367q-293 133 -684 -23q-27 -455 -43 -840z " />
<glyph unicode="&#x412;" horiz-adv-x="2039" d="M-37 1233q238 365 604 496q326 115 615 12q287 -104 344 -350q66 -276 -207 -592q225 10 395 -78q184 -94 262 -283q90 -219 29 -430t-250 -346q-444 -319 -1171 -33l-19 -71q6 -6 -88 20l12 90l-90 43q8 8 21 74l82 -25q53 463 20 840q-51 4 -143 23q-123 25 -154 28 q10 8 49 117q127 -55 236 -80q-57 567 -88 567q264 -10 309 -79q41 -59 14 -506q231 18 402 182q139 133 119 342q-18 205 -176 328q-178 139 -441 82q-311 -66 -667 -400q-23 23 -19 29zM608 -266q442 -135 729 -72q244 53 342 240q86 164 33 366q-49 195 -194 299 q-143 102 -420 80q-86 -8 -209 -31q-127 -23 -152 -24q-39 -471 -129 -858z" />
<glyph unicode="&#x413;" horiz-adv-x="1021" d="M-45 1538q-51 250 172 313q190 55 350 -30q-197 18 -289 -25q-100 -45 -51 -147q51 -111 694 61q188 45 396 66q416 39 512 -88q117 -141 -6 -279q-61 -68 -146 -109q4 23 -18 52q-49 57 -193 86q-297 70 -823 -27q-35 -147 -74 -991q-39 -836 -43 -850q-90 0 -180 180 q0 246 66 899q70 692 73 762q-225 -33 -254 -31q-158 8 -186 158z" />
<glyph unicode="&#x414;" horiz-adv-x="2088" d="M-135 174q29 170 166 221q121 49 338 -63q4 0 6 -4l10 -4q20 -8 92 -52q123 575 187 822q-303 92 -363 278q-49 152 80 256q119 96 367 133q94 12 153 17q61 119 129 182q63 72 174 65q123 -6 150 -127q23 -74 -13 -167q330 -96 531 -398q98 49 180 142q31 29 35 -43 q-117 -145 -176 -177q123 -215 131 -501q8 -289 -105 -523q-123 -254 -350 -354q-258 -115 -606 -4q-303 96 -459 215q-29 -33 -55 -55q-62 -62 -152 -109q-176 -96 -313 -28q-170 96 -137 278zM57 131q6 -154 158 -137q147 14 225 149q-133 140 -260 138q-129 -2 -123 -150 zM453 1479q1 -177 241 -267q88 319 178 508q-168 -20 -282 -84q-119 -68 -137 -157zM586 190q238 -221 491 -217q229 2 414 181q178 174 244 444q70 285 -19 567q-432 -171 -860 -112q-147 -627 -270 -863zM883 1165q467 -76 821 84q-76 305 -389 422q-109 -209 -275 -317 q-6 -4 -14 4l-6 10q121 117 203 330q-94 23 -201 26q-43 -133 -139 -559zM1038 1780q100 -2 203 -25q43 173 -96 187q-51 2 -107 -162z" />
<glyph unicode="&#x415;" horiz-adv-x="1576" d="M104 -135q-86 279 76 522q168 264 395 406q-152 94 -200 213q-55 88 -39 229q25 199 215 344q-115 68 -141 160q-20 74 16 135q43 72 154 108q145 45 344 -10l-6 -6q-98 16 -201 6q-207 -18 -236 -145q-29 -119 140 -195q293 231 647 195q168 -18 229 -98 q59 -76 -24 -148q-94 -82 -297 -113q-233 -33 -451 39l-68 23q-147 -178 -129 -400q23 -150 207 -260q162 66 357 84q416 41 442 -106q10 -172 -260 -207q-256 -33 -537 74q-113 -88 -241 -256q-174 -305 -50 -627q86 -186 275 -276q176 -82 393 -60q217 23 397 142 q193 129 285 333q41 -109 -4 -245q-90 -276 -520 -420q-434 -133 -787 84q-174 109 -264 243q-74 92 -117 232zM725 1595q168 -51 272 -39q130 0 226 33q125 41 125 119q10 84 -226 47q-225 -35 -329 -108q-33 -20 -68 -52zM883 805q141 -49 284 -39q209 11 203 70 q-6 23 -80 34q-70 12 -131 9q-150 -12 -276 -74z" />
<glyph unicode="&#x416;" horiz-adv-x="2330" d="M18 127q-18 236 295 104q-112 -258 -61 -350q66 -117 172 -61q98 53 197 239q233 438 223 1016q-8 340 -170 385q-170 45 -477 -248q-4 -6 -43 74q176 231 376 342q399 221 514 -381q41 -217 19 -454q258 383 317 610q12 51 17 59q8 131 8 154q0 195 -47 219 q-37 20 -148 -68l-22 25q2 0 29 41q35 51 67 84q115 113 248 55q98 -274 -135 -1532q154 360 329 625q125 414 416 610q303 205 547 -4q109 -94 68 -237q-45 -160 -273 -136q123 270 10 353q-92 68 -204 -37q-102 -96 -193 -303q-207 -483 -133 -901q70 -403 193 -508 q147 -127 458 71q4 0 23 -28q20 -31 16 -29q-125 -150 -297 -190q-346 -80 -585 471q-125 287 -95 608q-389 -682 -446 -1460q-8 -31 -33 -50q-51 -35 -145 31q152 469 299 1716q-188 -342 -359 -606q-129 -438 -379 -639q-264 -211 -473 19q-106 113 -123 311zM1188 1792v2 v-2zM1925 1294l2 2q-2 0 -2 -2z" />
<glyph unicode="&#x417;" horiz-adv-x="1839" d="M106 182q14 197 105 342q74 -492 90 -542q100 -344 356 -435q244 -86 455 -16q193 61 322 236q121 164 147 372q29 215 -57 400q-86 184 -183 274q-102 92 -272 135q-152 39 -217 -2q-43 -29 -35 -67q14 -80 252 -113q211 -25 383 74q156 90 227 250q49 133 13 276 q-33 131 -117 201l-66 -37q-195 -117 -428 -131q-207 -14 -315 49q-96 51 -53 139q41 90 200 144q342 109 674 -60q150 111 96 221q-51 119 -260 95q-102 -12 -196 -48l-8 5q186 96 340 79q115 -10 170 -73q49 -53 45 -129q-6 -94 -105 -185q229 -172 209 -432 q-16 -195 -106 -274q-94 -121 -295 -187q-182 -61 -385 -57q-201 4 -316 70q-127 72 -94 190q18 62 145 82q145 25 357 -24q258 -78 379 -175q104 -82 186 -247q125 -260 68 -541q-55 -266 -254 -451q-207 -193 -486 -219q-309 -29 -626 162q-375 254 -345 649zM860 1597 q16 -78 150 -92q104 -10 225 19q94 4 260 90l-78 39q-117 51 -344 37q-238 -12 -213 -93z" />
<glyph unicode="&#x418;" horiz-adv-x="1654" d="M-45 1718q37 98 139 170q152 109 316 -16q82 -70 32 -440q-6 -57 -116 -664q-49 -268 8 -479t170 -185q203 -47 442 635q72 205 168 543q96 334 117 393q78 -92 237 -149q-74 -113 -157 -514q-86 -410 -72 -617q16 -233 156 -332q135 -98 278 5q20 -23 23 -31 q-52 -78 -140 -129q-172 -104 -348 29q-145 180 -153 518q-6 262 61 475q-76 -264 -201 -535q-252 -539 -499 -571q-283 -10 -359 254q-59 205 6 608q6 51 138 672q74 348 37 438q-117 35 -195 -31q-39 -33 -55 -71z" />
<glyph unicode="&#x419;" horiz-adv-x="1613" d="M-51 1481q33 84 168 168q174 106 313 -7q61 -57 21 -309q-14 -78 -50 -252q-41 -195 -59 -293q-133 -723 121 -772q236 -8 448 580q63 178 146 475q84 299 104 359q84 -150 244 -207q-201 -682 -170 -944q27 -223 164 -275q123 -45 274 64q20 -23 23 -31 q-60 -70 -156 -115q-188 -88 -364 45q-244 299 -97 766q-66 -215 -182 -436q-233 -440 -481 -473q-283 -10 -361 217q-59 176 4 526l136 590q74 311 36 402q-117 35 -194 -31q-39 -33 -55 -72zM610 1659q-45 121 27 223q80 115 260 117q47 -43 51 -166q-14 20 -82 -12 q-72 -35 -63 -107q12 -115 143 -123q100 -6 199 43q4 -2 6 -65q-204 -115 -360 -74q-135 37 -181 164z" />
<glyph unicode="&#x41a;" horiz-adv-x="2629" d="M231 1325q186 199 783 287q203 31 395 39q168 8 170 -4q0 63 74 63t73 -63q0 -55 -69 -50q47 -172 47 -743q-6 -2 84 -4q90 -4 172 27q262 96 424 516q172 449 446 546q139 47 297 0l-4 -20q-66 10 -203 -121q-147 -143 -198 -301q-139 -432 -393 -602 q-174 -115 -478 -137q385 -109 551 -424q213 -408 529 -531q158 -61 272 -41q23 -51 8 -45q-508 -227 -821 101q-70 74 -328 567q-86 164 -239 244q-47 25 -97 39l-38 12q10 -29 -23 -160q-41 -160 -119 -297q-236 -414 -667 -375q-365 33 -433 273q-33 121 7 233l32 8 q-29 -166 47 -264q68 -86 201 -102q287 -37 496 174q236 240 233 502q-84 33 -143 114q-53 74 -31 84l228 -12q55 172 63 733q-514 41 -950 -198q-193 -106 -250 -224q-63 -125 57 -223q193 -158 467 -133q137 14 236 57q-152 -182 -447 -200q-266 -16 -397 88 q-340 272 -64 567z" />
<glyph unicode="&#x41b;" horiz-adv-x="2291" d="M-51 63q-16 98 39 193q53 90 141 121q96 33 180 -29l-16 -20q-59 41 -125 4q-61 -33 -78 -105q-18 -78 35 -137q63 -70 211 -86q522 -47 833 518q187 424 281 768q27 92 141 606q-100 0 -114 5l-21 114q39 -12 158 -18q123 -4 151 8q39 -178 90 -608q59 -475 99 -697 q152 -838 502 -1060q-381 -55 -570 258q-139 227 -203 729q-18 193 -38 542q-18 328 -29 424q-147 -905 -246 -1134q-170 -389 -436 -578q-240 -168 -506 -141q-205 20 -354 139q-106 74 -125 184z" />
<glyph unicode="&#x41c;" horiz-adv-x="2668" d="M231 1325q186 199 777 287q201 31 391 39q166 8 168 -4q-12 70 61 69q74 0 74 -63q0 -55 -27 -58q4 -28 -4 -278q-10 -291 -2 -479q25 -666 262 -723q248 -61 436 759q248 1075 228 1035q43 33 102 33q53 0 56 -15q-145 -322 -209 -1059q-27 -492 -23 -553 q20 -385 215 -577q133 -135 256 -25q61 55 96 137l37 -8q-6 -96 -55 -192q-98 -188 -317 -176q-256 16 -357 376q-70 246 -59 619q-184 -553 -406 -526q-238 29 -286 559q-145 -705 -766 -654q-365 29 -433 271q-33 121 7 235l32 8q-29 -166 47 -264q68 -86 201 -102 q287 -37 496 174q145 147 198 291q31 82 89 397q29 184 63 733q-514 41 -950 -198q-193 -106 -250 -224q-63 -125 57 -223q193 -158 467 -133q137 14 236 57q-152 -182 -447 -200q-266 -16 -397 88q-340 272 -64 567z" />
<glyph unicode="&#x41d;" horiz-adv-x="2426" d="M231 1325q186 199 783 287q203 31 395 39q168 8 170 -4q0 63 74 63t73 -63q0 -55 -69 -50q47 -172 47 -743q391 -8 391 -2q33 350 174 1024q45 35 133 49q82 14 84 2q-145 -322 -229 -1069q55 6 117 23q86 20 84 20q68 12 92 -43q35 -76 -64 -178q-63 0 -248 -10 q0 -20 -10 -183q-8 -143 -4 -245q20 -326 193 -484q166 -152 303 -45q68 53 102 137l37 -8q-6 -96 -55 -192q-98 -188 -318 -176q-317 18 -397 565q-45 301 -14 641l-377 2q-10 -223 -156 -471q-231 -401 -663 -363q-365 33 -433 273q-33 121 7 233l32 8q-29 -166 47 -264 q68 -86 201 -102q287 -37 496 174q236 240 256 498q-84 33 -154 116q-66 76 -43 86l228 -12q39 174 63 733q-514 41 -950 -198q-193 -106 -250 -224q-63 -125 57 -223q193 -158 467 -133q137 14 236 57q-152 -182 -447 -200q-266 -16 -397 88q-340 272 -64 567z" />
<glyph unicode="&#x41e;" horiz-adv-x="1587" d="M90 481q-25 281 78 580q104 307 301 510q217 223 485 252q195 20 349 -92q168 -123 94 -301q-174 91 -385 71q-424 -39 -609 -600q-119 -358 -55 -629q55 -238 227 -340q164 -96 343 -22q190 78 288 317q154 373 113 678q-39 274 -193 320l195 157q45 -53 133 -100 q174 -92 381 -57q-141 -166 -375 -121q90 -238 8 -553q-80 -303 -272 -524q-205 -238 -436 -258q-264 -25 -486 247q-160 168 -184 465z" />
<glyph unicode="&#x41f;" horiz-adv-x="1372" d="M-80 1602q-47 252 176 315q188 53 346 -33q-194 19 -284 -22q-94 -45 -56 -150q47 -119 359 -90q158 14 303 53q963 207 1114 4q119 -141 -4 -278q-61 -68 -148 -109q2 29 -26 64q-55 72 -201 100q-297 70 -805 -26q-403 -57 -452 -58q-279 8 -322 230zM285 -4 q23 233 131 719q106 475 112 563q0 20 207 35q-4 -2 -139 -735q-135 -745 -150 -779q-90 8 -161 197zM866 -266q-14 154 6 528q20 287 68 658q31 246 29 479q8 2 102 -2q98 -6 103 -13q16 0 -130 -1208q-29 -166 -24 -350q6 -369 168 -457q213 -113 385 -20q180 96 147 344 q-14 117 -145 225l8 45q82 -51 156 -143q147 -182 102 -383q-33 -129 -149 -197q-104 -59 -254 -59q-326 2 -463 209q-90 152 -109 344z" />
<glyph unicode="&#x420;" horiz-adv-x="1613" d="M25 1389q0 285 368 436q250 102 465 102q362 0 557 -90q354 -162 332 -612q-31 -465 -537 -559q-254 -47 -501 -2l-50 -846q-131 0 -167 133l36 745q-57 8 -122 45q-57 33 -56 41q112 -10 182 -14l13 252q-520 -23 -520 369zM106 1376q33 -285 441 -305l26 520 q37 98 248 80q-29 -66 -73 -594q74 6 124 19q17 -23 -6 -29l-123 -27l-22 -276q336 0 518 72q260 104 291 368q25 303 -180 475q-164 137 -404 148q-248 10 -491 -74q-348 -121 -349 -377z" />
<glyph unicode="&#x421;" d="M63 377q0 387 211 661q31 45 78 99q-160 123 -205 290q-39 139 13 246q55 131 211 199q203 88 475 -10l-19 -23q-135 27 -276 10q-283 -37 -318 -262q-35 -209 207 -350q399 414 865 350q227 -31 309 -172q80 -139 -33 -266q-129 -147 -405 -201q-317 -59 -609 70 q-41 16 -92 41q-248 -305 -199 -653q43 -309 293 -512t541 -156q326 51 543 416q-4 -145 -90 -297q-174 -305 -590 -340q-432 -33 -692 245q-131 137 -175 283q-43 139 -43 332zM565 1176q254 -141 572 -95q150 23 229 93q90 76 74 194q-37 104 -158 133q-109 25 -260 -16 q-336 -92 -457 -309z" />
<glyph unicode="&#x422;" horiz-adv-x="1581" d="M-82 1602q-45 252 176 315q188 53 346 -33q-194 19 -284 -22q-96 -45 -56 -150q45 -119 469 -72q213 25 416 72q930 180 1081 -22q117 -141 -6 -279q-61 -68 -145 -108q4 23 -19 51q-47 57 -192 86q-297 70 -997 -27q-492 -72 -457 -72q-285 2 -332 261zM285 -14 q0 233 63 727q61 481 60 571q0 23 200 55q-4 -4 -67 -745q-66 -754 -76 -789q-90 0 -180 181zM692 -213q0 233 70 858q70 612 67 703q0 33 191 32q-4 -4 -70 -866q-68 -872 -78 -907q-90 0 -180 180zM1128 -266q-14 154 9 528q20 287 65 658q33 246 31 479q6 2 102 -2 q96 -6 103 -13q14 0 -129 -1208q-29 -166 -27 -350q8 -369 170 -457q213 -113 385 -20q178 96 148 344q-14 117 -146 225l8 45q82 -51 156 -143q145 -182 102 -383q-33 -129 -149 -197q-106 -59 -254 -59q-326 2 -463 209q-90 152 -111 344z" />
<glyph unicode="&#x423;" horiz-adv-x="2000" d="M55 911q113 457 525 762q223 166 368 45q109 -88 109 -194q33 -252 -21 -1043q-14 -219 45 -258q55 -39 150 84q260 360 373 836q37 158 67 383l51 342q160 -20 224 -105q-23 -102 -115 -1124q-78 -854 -211 -1096q805 -252 1219 -239q-70 -80 -185 -148 q-227 -135 -454 -78q-180 47 -644 326q-209 -387 -573 -293q-188 51 -197 203q-4 88 41 166q39 70 162 117q197 76 473 -9q104 102 160 1303q-348 -825 -565 -825q-297 -43 -279 561q6 186 43 444q39 266 39 256q16 119 4 219q-27 201 -176 107q-262 -158 -436 -502 q-66 -113 -78 -260q-14 -145 37 -193q12 -45 -21 -24l5 -6q-139 115 -140 243zM909 -664q16 -113 185 -135q176 -25 262 123q23 33 67 156q-78 35 -139 53q-180 56 -291 -12q-102 -61 -84 -185z" />
<glyph unicode="&#x424;" horiz-adv-x="2023" d="M51 1188q43 244 221 424q180 180 400 203q242 25 436 -164q39 178 2 213q-25 25 -133 -11q-4 6 -6 21q-4 16 -8 20q150 92 368 4l-45 -282q4 41 227 121q248 90 396 18q170 -74 209 -426l110 41l-4 -70q-41 -20 -100 -53q4 -156 -45 -395q-63 -307 -275 -449 q-164 -111 -309 -79q-154 33 -143 225q10 180 129 303q262 268 409 362q10 313 -45 388q-29 49 -119 49q-86 0 -186 -43q-248 -109 -289 -303q-252 -1212 -127 -2038q12 -70 -372 35l321 2220q-10 20 -158 129q-195 137 -366 -47q-154 -166 -203 -467q-51 -309 60 -494 q127 -215 423 -131v-82q2 0 -16 -8l-47 -16q-84 -25 -170 -21q-276 14 -453 303q-141 231 -92 500zM1511 471q43 -86 164 90q180 248 207 535q-299 -217 -358 -391q-54 -156 -13 -234z" />
<glyph unicode="&#x425;" horiz-adv-x="1720" d="M-618 463q14 117 98 147q100 37 291 -59q-74 -91 -133 -193q-121 -201 -48 -247q238 -152 447 -80q186 63 323 291q279 463 197 1046q-47 340 -231 393q-197 57 -502 -231q-14 -8 -8 57q190 188 403 264q424 154 541 -411q80 309 325 428q236 115 478 -15 q76 -39 133 -157q57 -117 53 -223q-2 -121 -86 -158q-98 -43 -291 45q117 41 154 207q37 162 -53 223q-242 164 -443 -188q-184 -322 -203 -791q-18 -496 185 -684q242 -223 712 135q20 -55 25 -37q-18 -39 -129 -139q-147 -135 -291 -195q-449 -188 -670 410 q-170 -324 -575 -371q-373 -43 -588 154q-49 45 -86 160q-39 123 -28 219z" />
<glyph unicode="&#x426;" horiz-adv-x="1601" d="M-51 1481q33 84 168 168q174 106 313 -7q61 -57 21 -309q-14 -78 -50 -252q-41 -195 -59 -293q-133 -723 121 -772q236 -8 448 580q63 178 146 475q84 299 104 359q84 -150 244 -207q-201 -682 -170 -944q27 -227 106 -273q74 -39 220 66q6 -6 14 -11q6 -4 14 -14 q-18 -41 -57 -80q-41 -129 -64 -172q-57 -102 -149 -117q-500 -25 -768 -124q-106 -39 -289 -166q-8 100 51 206q117 213 451 246q-16 -2 528 -24q99 0 152 90q-123 -49 -268 61q-242 297 -103 746q-82 -250 -203 -467q-221 -391 -454 -422q-283 -10 -361 217q-59 176 4 526 l136 590q74 311 36 402q-117 35 -194 -31q-39 -33 -55 -72z" />
<glyph unicode="&#x427;" horiz-adv-x="1646" d="M100 1794q29 76 144 150q152 94 270 -7q68 -66 76 -145q10 -98 -35 -358q-14 -80 -72 -279q-61 -207 -82 -301q-68 -344 142 -367q227 -61 463 476q150 344 260 804q72 -133 211 -184q-21 -172 -211 -852q-133 -479 -62 -780q53 -219 242 -144q94 37 176 119l31 -18 q-31 -92 -105 -168q-147 -156 -354 -84q-264 94 -199 629q39 305 183 727q-182 -414 -367 -570q-121 -102 -309 -127q-244 -8 -309 195q-51 156 4 469l116 526q61 276 31 359q-100 31 -168 -27q-33 -31 -47 -65z" />
<glyph unicode="&#x428;" horiz-adv-x="2056" d="M-53 1647q-6 2 139 180q137 170 293 71q88 -51 37 -391l-54 -309q-35 -195 -45 -309q-25 -322 -20 -457q8 -233 92 -244q92 -12 268 656q203 776 250 862q145 -90 258 -141q-55 -35 -164 -725q-20 -262 13 -457q39 -231 137 -238q92 -12 305 758q246 885 289 965 q117 -156 227 -207q-43 0 -174 -625q-133 -643 -90 -813q45 -172 156 -155q59 8 192 106q8 -12 17 -55q-68 -80 -160 -133q-184 -111 -305 12q-150 252 16 997q-70 -279 -176 -555q-209 -553 -383 -544q-223 67 -256 473q-25 297 43 575q-74 -266 -176 -528 q-207 -526 -346 -512q-217 -41 -256 254q-23 160 16 643q16 190 90 516q59 274 53 424q-113 49 -247 -139z" />
<glyph unicode="&#x429;" horiz-adv-x="2195" d="M78 1647q-6 2 139 180q137 170 293 71q88 -51 37 -391l-53 -309q-35 -195 -45 -309q-25 -322 -21 -457q8 -233 92 -244q92 -12 268 656q203 776 250 862q145 -90 258 -141q-55 -35 -163 -725q-20 -262 12 -457q39 -231 137 -238q92 -12 305 758q246 885 289 965 q117 -156 227 -207q-43 0 -174 -625q-133 -643 -90 -813q45 -172 156 -155q59 8 192 106q8 -12 17 -55l-4 -4q2 -4 2 -11l-13 -38q-14 -41 -24 -68q-41 -106 -92 -182q-164 -246 -437 -211q-494 61 -776 8q-113 -23 -313 -115q10 100 86 195q152 190 485 166q-29 2 516 -115 q193 -39 340 84q100 84 160 223q-242 -211 -395 -53q-150 252 16 997q-70 -279 -176 -555q-209 -553 -383 -544q-223 68 -256 473q-25 297 43 575q-74 -266 -176 -528q-207 -526 -346 -512q-217 -41 -256 254q-23 160 16 643q16 190 90 516q59 274 54 424q-113 49 -248 -139 z" />
<glyph unicode="&#x42a;" horiz-adv-x="1875" d="M-469 1792q-45 252 176 315q188 53 346 -32q20 -49 -30 -25q-162 55 -277 -14q-111 -70 -72 -170q57 -152 885 -49q39 8 94 22l74 21q68 16 66 -9h2q-2 -2 -2 -4l-84 -862q942 190 1116 -244q82 -209 30 -409q-49 -201 -215 -338q-385 -317 -1044 -119l-27 -225 q-80 0 -186 106q12 57 27 187l-162 71l-4 31q-2 29 24 43l152 -43q37 391 49 795q-88 -29 -156 -56q-43 21 -49 82q53 18 207 64q10 354 -4 661q-283 -37 -530 -14q-373 37 -406 215zM375 -233l8 -11q-4 -18 -6 -16t-2 27zM608 2q698 -127 944 180q98 125 76 281 q-23 156 -153 276q-260 231 -777 152q-57 -584 -90 -889z" />
<glyph unicode="&#x42b;" horiz-adv-x="2263" d="M29 14l159 -69q-16 -150 -24 -187q100 -109 186 -108l27 225q659 -199 1044 119q166 137 215 338q51 201 -30 409q-94 238 -447 285q-274 39 -670 -41l84 866q6 49 -127 72q-141 25 -210 -61q29 -412 14 -934q-76 -20 -205 -62q-4 -23 10 -49q14 -31 39 -33q86 36 154 54 q-14 -403 -49 -793l-150 43q-12 -66 -20 -74zM156 -233l8 -9q-8 -33 -8 9zM389 2q33 305 90 889q516 80 776 -152q131 -121 154 -276q23 -156 -76 -281q-244 -307 -944 -180zM1694 786q66 754 194 1162q44 51 144 26q109 -27 135 -141q-6 -80 -207 -815q-162 -592 -80 -995 q43 -221 199 -162q78 31 145 104l31 -18q-10 -82 -64 -150q-106 -137 -315 -69q-268 90 -182 1058z" />
<glyph unicode="&#x42c;" horiz-adv-x="1740" d="M27 41q-4 27 24 47l150 -43q37 389 49 793q-68 -18 -154 -54q-33 5 -43 15q-16 16 -6 67q131 41 205 62q14 522 -14 934q72 86 211 61q133 -23 126 -72l-83 -866q944 190 1116 -244q84 -209 32 -409q-51 -201 -217 -338q-385 -317 -1044 -119l-27 -225q-86 0 -186 108 q8 37 24 187l-159 69zM158 -233l8 -9q-8 -33 -8 9zM391 2q700 -127 944 180q100 125 78 281q-23 156 -156 276q-258 231 -776 152q-55 -584 -90 -889z" />
<glyph unicode="&#x42d;" horiz-adv-x="1867" d="M111 289q162 -291 399 -420q215 -119 448 -84q223 33 390 195q174 166 227 411q-57 -35 -195 25q-504 154 -905 0q59 70 166 135q215 129 463 108q137 -16 239 -63q125 -61 162 -70q53 -26 86 -16q33 326 -143 668l-84 -54q-272 -168 -594 -149q-281 14 -430 143 q-129 113 -70 258q63 152 287 215q528 147 950 -184q92 72 117 143q25 74 -8 185q-66 219 -350 217q-143 -2 -273 -47l-20 18q254 135 469 74q162 -45 235 -166q174 -264 -69 -512q205 -246 239 -592q35 -338 -104 -621q-150 -305 -443 -421q-332 -133 -776 12 q-229 90 -344 350q-57 131 -69 242zM451 1356q0 -122 100 -185q88 -55 240 -57q319 -6 552 168q-150 199 -495 246q-156 20 -260 -21q-117 -43 -137 -151z" />
<glyph unicode="&#x42e;" horiz-adv-x="3141" d="M231 1325q186 199 783 287q203 31 395 39q168 8 170 -4q0 63 74 63t73 -63q0 -55 -69 -50q47 -172 47 -854q8 -41 139 -41q35 408 264 732q252 350 600 389q195 20 349 -92q168 -123 94 -301q-174 91 -385 71q-424 -39 -608 -600q-119 -358 -56 -629q55 -238 228 -340 q164 -96 342 -22q190 78 288 317q154 373 113 678q-39 274 -193 320l195 157q45 -53 133 -100q174 -92 381 -57q-141 -166 -375 -121q90 -238 9 -553q-80 -303 -273 -524q-205 -238 -436 -258q-264 -25 -485 247q-188 197 -191 551q-137 -23 -149 -2q25 -154 -150 -409 q-233 -344 -659 -308q-365 33 -433 273q-33 121 7 233l32 8q-29 -166 47 -264q68 -86 201 -102q287 -37 496 174q236 240 233 391q-84 33 -143 115q-53 74 -31 84l228 -12q55 172 63 843q-514 41 -950 -198q-193 -106 -250 -224q-63 -125 57 -223q193 -158 467 -133 q137 14 236 57q-152 -182 -447 -200q-266 -16 -397 88q-340 272 -64 567z" />
<glyph unicode="&#x42f;" horiz-adv-x="1898" d="M-76 -55q45 -109 187 -148q137 -37 303 6q403 98 520 471q-313 -59 -510 123q-182 170 -191 465q-6 303 181 578q209 307 594 465q197 80 483 14q305 -68 328 -244l-64 21q-72 23 -139 39q-223 51 -410 22q-592 -92 -657 -964q-27 -352 252 -410q104 -23 215 10 q106 29 151 84q80 98 140 545q174 -47 325 -27q31 -49 -98 -84q-129 -262 -104 -632q8 -158 57 -189q55 -35 145 117l66 -41q-41 -84 -107 -156q-129 -141 -248 -82q-53 25 -102 123q-59 119 -65 281l-41 -15q-61 -209 -238 -417q-174 -205 -352 -285q295 127 -621 330z" />
<glyph unicode="&#x430;" horiz-adv-x="980" d="M31 348q-12 217 119 434q129 215 292 260q184 49 303 -168q1 -6 -67 -6q-86 2 -152 -26q-227 -96 -272 -537q-20 -233 86 -221q80 8 160 113q109 141 141 608l135 -39q-31 -387 -31 -461q0 -102 64 -182q80 -104 190 57l9 -6q-47 -174 -174 -188q-158 -18 -191 149 q-16 84 -2 170q-45 -109 -117 -203q-141 -188 -270 -118q-209 115 -223 364z" />
<glyph unicode="&#x431;" horiz-adv-x="1044" d="M125 246q-33 287 70 473q121 227 278 256q102 18 201 -31q111 -57 88 -153q-92 43 -191 26q-199 -35 -239 -338q-51 -362 102 -481q63 -49 135 -23q76 31 125 134q53 113 111 499q78 526 45 1047q-47 168 135 92q662 -16 967 283q51 -84 35 -179q-29 -190 -361 -241 q-279 -43 -577 -13q-66 -967 -232 -1396q-203 -524 -559 -293q-102 66 -133 338z" />
<glyph unicode="&#x432;" horiz-adv-x="1064" d="M-209 1153q0 82 21 70q168 -105 352 -93q74 350 285 707q84 141 247 168q166 29 258 -84q150 -178 -88 -491q-223 -293 -465 -347q-197 -874 15 -1075q90 -86 178 25q82 104 123 329q29 158 -45 365q-70 -47 -135 10q-68 55 -13 115q86 94 176 90q88 -2 148 -102 q80 -4 125 47l28 -31q-49 -66 -120 -88q88 -246 -11 -473q-104 -244 -239 -326q-350 -215 -475 174q-109 338 -9 904q-197 -35 -331 16q-23 8 -25 90zM412 1178q266 131 381 444q45 127 34 215q-10 94 -75 98q-121 8 -242 -362q-109 -324 -98 -395z" />
<glyph unicode="&#x433;" horiz-adv-x="823" d="M31 788q84 172 295 261q240 102 338 -111q55 -127 -129 -293q-279 -270 -248 -414q16 -78 69 -114q51 -33 119 -19q160 37 246 269q37 16 43 -15q8 -37 -23 -116q-33 -96 -94 -164q-176 -199 -446 -60q-68 35 -101 144t-4 206q35 117 144 222q166 158 202 207 q64 96 33 135q-25 35 -108 20q-205 -41 -285 -184q-33 -16 -51 26z" />
<glyph unicode="&#x434;" horiz-adv-x="905" d="M-209 -741l27 8q78 -391 454 -221q223 100 308 632q29 186 34 385q6 170 -4 170q-115 -195 -286 -245q-82 -39 -158 41q-72 76 -103 221q-78 360 148 622q217 252 379 152q82 -51 119 -152q-172 25 -328 -143q-170 -180 -170 -444q0 -231 108 -203q76 20 177 151 q76 96 155 529q170 0 223 -51q-53 -211 -90 -1041q-4 -168 -65 -346q-121 -358 -395 -414q-305 -70 -451 134q-72 100 -82 215z" />
<glyph unicode="&#x435;" horiz-adv-x="870" d="M33 483q23 336 293 486q113 61 217 47q109 -14 159 -111q125 -231 -110 -432q-86 -74 -186 -113q-94 -39 -127 -18q-11 -163 118 -276q147 -127 305 110q12 18 3 96l-9 72q119 12 152 -61q0 -51 -57 -146q-94 -156 -279 -188q-240 -41 -379 176q-113 174 -100 358z M274 414q123 -7 277 237q68 104 70 178q4 84 -82 101q-115 23 -213 -252q-37 -98 -52 -186q-16 -86 0 -78z" />
<glyph unicode="&#x436;" d="M-31 170q-12 129 185 57q-84 -149 -39 -192q41 -37 96 12q53 45 104 152q117 240 125 493q12 383 -360 76q-2 -4 -27 41q113 127 238 188q252 121 323 -211q20 -100 15 -208q92 111 155 213q59 422 60 493q0 102 -60 98q-41 -2 -125 -59l-14 14q43 68 105 121 q121 104 211 27q39 -94 -13 -602q-41 -416 -76 -584q45 102 162 276q63 248 258 377q201 131 363 9q70 -53 43 -132q-29 -88 -172 -73q68 111 2 162q-41 33 -103 -23q-57 -51 -112 -162q-127 -252 -115 -467q10 -184 191 -219q184 -37 380 123q4 0 17 -16q12 -16 8 -15 q-119 -119 -268 -176q-297 -117 -449 187q-57 115 -63 235q-225 -469 -264 -842q-53 -23 -150 -4q90 592 160 1090q-88 -135 -160 -230q-70 -264 -238 -397q-176 -137 -317 -4q-66 63 -76 172z" />
<glyph unicode="&#x437;" horiz-adv-x="817" d="M-498 -727q47 160 222 248q258 131 718 45l88 -17q27 432 -112 633q-92 -82 -170 -131q-74 -45 -64 -20q3 5 -22 30l-25 23q238 63 355 442q49 160 32 275q-20 125 -114 141q-102 20 -203 -121q-86 -123 -84 -131q-51 111 -6 193q37 74 139 108q94 33 199 21 q111 -14 172 -72q160 -145 94 -354q-53 -162 -232 -338q354 -295 277 -748q111 -25 428 -98q211 -49 324 -68q297 -49 620 4q18 4 6 -14q-12 -16 -49 -43q-102 -68 -262 -108q-500 -127 -1124 135q-102 -238 -320 -369q-238 -143 -551 -117q-246 23 -321 183 q-57 117 -15 268zM-303 -926q23 -170 178 -182q537 -45 637 504q-203 86 -414 67q-178 -16 -270 -90q-156 -125 -131 -299z" />
<glyph unicode="&#x438;" horiz-adv-x="1062" d="M0 944l35 43q33 43 65 70q104 86 226 28q70 -31 59 -215q-4 -63 -18 -170q-20 -150 -23 -172q-20 -186 -20 -237q-2 -111 38 -111q84 -16 246 371q29 70 121 303q63 162 88 207q88 -88 172 -117q-168 -633 -182 -774q-10 -102 39 -113q33 -6 117 39l12 -16 q-29 -45 -76 -76q-96 -61 -186 8q-123 152 -2 543q-254 -600 -422 -588q-162 -23 -176 144q-4 41 32 362q53 500 41 508q-96 29 -157 -61z" />
<glyph unicode="&#x439;" horiz-adv-x="1030" d="M0 944l35 43q33 43 65 70q104 86 226 28q70 -31 59 -215q-4 -63 -18 -170q-20 -150 -23 -172q-20 -186 -20 -237q-2 -111 38 -111q84 -16 246 371q29 70 121 303q63 162 88 207q88 -88 172 -117q-168 -633 -182 -774q-10 -102 39 -113q33 -6 117 39l12 -16 q-29 -45 -76 -76q-96 -61 -186 8q-123 152 -2 543q-254 -600 -422 -588q-162 -23 -176 144q-4 41 32 362q53 500 41 508q-96 29 -157 -61zM346 1274q-49 117 12 207q70 102 244 96q47 -43 51 -166q-14 20 -82 -12q-72 -35 -63 -107q12 -115 143 -123q100 -6 199 43 q4 -2 6 -65q-183 -86 -330 -37q-129 45 -180 164z" />
<glyph unicode="&#x43a;" horiz-adv-x="1034" d="M-10 838q39 51 98 90q117 76 213 16q72 -37 74 -168q0 -20 -27 -317q154 356 207 444q160 256 356 258q143 2 201 -57q47 -47 23 -115q-23 -63 -82 -80q-66 -18 -115 47q0 70 -33 105q-61 61 -200 -133q-190 -266 -232 -436q104 25 176 30q94 -2 131 -78q25 -49 33 -172 q10 -137 25 -188q31 -96 110 -129q98 -18 168 55l12 -22q-35 -63 -98 -117q-127 -109 -268 -61q-70 31 -117 331q-23 137 -39 189q-29 78 -76 65q-176 -37 -227 -198q-14 -45 -31 -144q-14 -98 -28 -141q-86 33 -183 51q104 662 105 803q0 102 -49 108q-35 2 -113 -51z" />
<glyph unicode="&#x43b;" horiz-adv-x="954" d="M-637 -70q86 -121 344 -108q264 12 387 153q180 205 193 895q0 8 -92 -8q-45 29 -39 88q14 45 551 54q-51 -793 153 -969q29 -20 76 0q49 23 76 69l39 -30q-90 -162 -183 -156q-178 -6 -260 117q-145 217 -92 858l-53 -4q8 -203 -80 -582q-129 -559 -377 -651 q-319 -98 -526 84q-68 59 -105 131q-33 66 -12 59z" />
<glyph unicode="&#x43c;" horiz-adv-x="1294" d="M-754 -221q223 -152 514 -25q305 135 408 482q117 391 113 712q14 45 249 66q7 -33 7 -494q0 -356 96 -440q92 -66 227 385q174 578 178 586q135 -78 219 -107q-29 14 -81 -317q-55 -340 -25 -457q27 -102 57 -111q20 -6 99 37l12 -16q-29 -45 -76 -76q-94 -61 -186 8 q-78 96 -94 283q-14 158 16 260q-41 -147 -102 -293q-125 -293 -230 -285q-117 0 -184 158q-63 150 -66 391q8 -6 -20 -135q-33 -154 -84 -301q-154 -446 -369 -539q-377 -150 -577 27q-66 57 -95 133q-27 70 -6 68z" />
<glyph unicode="&#x43d;" horiz-adv-x="1001" d="M-10 838q25 47 69 84q88 70 185 10q141 -139 96 -520q104 -6 217 141q6 8 61 227q51 207 89 232q43 -4 84 -23q78 -37 59 -104q-57 -80 -90 -393q-37 -350 78 -388q98 -18 149 78l12 -22q-16 -61 -59 -115q-90 -104 -231 -57q-123 31 -150 188q-8 51 -10 127q0 90 -2 103 l-211 -127q-43 -285 -92 -367q-86 33 -183 51q104 662 105 803q0 102 -49 108q-35 2 -113 -51z" />
<glyph unicode="&#x43e;" horiz-adv-x="925" d="M27 434q-4 254 123 414q150 186 360 186q102 0 160 -49q63 -57 24 -149q-78 35 -174 10q-195 -47 -291 -340q-55 -172 -32 -291q20 -104 92 -143q70 -37 145 0q80 41 123 143q80 188 43 350q-33 139 -119 164l174 82q94 -111 267 -82q8 -16 -2 -41q-23 -45 -115 -78 q27 -94 -31 -241q-59 -147 -166 -258q-117 -121 -239 -134q-141 -16 -256 125q-82 109 -86 332z" />
<glyph unicode="&#x43f;" horiz-adv-x="1005" d="M-10 838q25 47 69 84q88 70 185 10q84 -84 96 -275q8 -137 -18 -264q199 539 348 635q39 -4 73 -20q70 -35 52 -103q-53 -76 -68 -399q-16 -356 98 -393q98 -18 150 77l12 -22q-16 -61 -59 -115q-90 -104 -232 -57q-125 31 -166 289q-29 178 -12 317q-61 -90 -145 -350 q-88 -272 -129 -340q-86 33 -183 51q104 662 105 803q0 102 -49 108q-35 2 -113 -51z" />
<glyph unicode="&#x440;" horiz-adv-x="1032" d="M-53 -1100l250 2130l186 -33l16 -120q39 55 103 104q125 98 248 70q152 -66 170 -318q59 29 110 41l-4 -57q-43 -20 -102 -55q0 -98 -27 -242q-55 -262 -199 -387q-115 -102 -227 -82q-115 20 -104 180q10 141 92 264q76 113 276 240q-6 117 -30 156q-55 94 -181 16 q-135 -82 -186 -287q-256 -1022 -158 -1650q8 -59 -233 30zM485 76q37 -74 140 74q96 141 108 391q-195 -141 -237 -267q-46 -130 -11 -198z" />
<glyph unicode="&#x441;" horiz-adv-x="864" d="M55 561q27 172 135 311q106 135 242 177q143 43 256 -43q31 -23 53 -91q25 -72 17 -133q-18 -166 -244 -71q158 180 90 227q-47 33 -121 -25q-70 -55 -133 -165q-154 -268 -102 -476q45 -184 194 -221q158 -41 353 117q37 41 34 -76q-119 -96 -268 -131 q-299 -70 -450 234q-86 174 -56 366z" />
<glyph unicode="&#x442;" horiz-adv-x="1576" d="M-39 920q53 45 123 73q141 61 231 -8q109 -137 -20 -545q55 152 137 303q162 301 293 293q117 -14 133 -250q14 -197 -31 -333q285 588 453 575q137 10 160 -129q16 -106 -31 -324l-86 -352q-37 -176 -2 -213q96 -29 207 80l4 -45q-8 -4 -47 -45q-45 -41 -80 -66 q-117 -80 -238 -20q-68 29 -32 217q6 35 36 170q25 111 33 172q25 199 25 213q4 86 -37 86q-82 10 -227 -330q-135 -311 -162 -491q-109 2 -193 31q12 133 99 518q39 315 -47 317q-125 12 -390 -866q-125 16 -206 45q137 690 153 831q10 102 -82 107q-74 4 -164 -45z M455 1171q25 31 14 93q-23 -16 274 18q313 39 471 94q47 16 27 -100q-6 -39 -18 -84q-10 -41 -11 -37q-8 0 -88 -10q-98 -14 -178 -21q-281 -20 -491 47z" />
<glyph unicode="&#x443;" horiz-adv-x="1032" d="M-375 -774q33 162 199 266q246 152 713 105l116 -13q61 227 68 508q0 -6 -115 -61q-135 -63 -233 -56q-317 23 -160 779q49 238 -86 166q-98 -51 -172 -150q-10 4 -29 27q29 88 146 170q141 100 295 73q125 -23 49 -444q-84 -457 -45 -500q31 -33 155 -8q135 27 195 96 q59 537 59 807q0 29 119 23t123 -37q37 -238 -256 -1405q176 -20 479 -66q242 -37 352 -45q319 -29 648 54q18 4 6 -15q-12 -20 -51 -49q-106 -84 -273 -135q-524 -168 -1218 88q-109 -256 -236 -391q-195 -207 -475 -207q-248 0 -338 152q-66 113 -35 268zM-158 -944 q43 -156 199 -152q143 6 291 129q174 145 274 406q-207 61 -411 24q-174 -33 -254 -110q-144 -137 -99 -297z" />
<glyph unicode="&#x444;" horiz-adv-x="1595" d="M88 569q45 180 176 314q127 131 260 141q145 10 224 -139l71 489q16 160 -143 49l-14 15q43 68 104 121q123 104 211 26h2l-76 -737q207 217 404 172q145 -61 174 -301q43 18 92 33l-4 -58q-35 -16 -84 -45q4 -117 -25 -258q-55 -260 -209 -385q-121 -100 -237 -78 q-115 20 -105 181q10 141 92 264q82 119 287 248q8 199 -22 241q-25 43 -78 33q-51 -10 -113 -64q-141 -125 -194 -333q-254 -1022 -158 -1651q8 -59 -266 27l161 1122q-117 -78 -227 -59q-162 25 -272 258q-82 174 -31 374zM256 272q47 -197 117 -252q92 -74 256 46l98 675 q-72 125 -119 158t-119 -18q-70 -49 -131 -154q-152 -248 -102 -455zM1028 51q37 -72 139 76q88 127 115 395q-199 -145 -244 -274q-45 -131 -10 -197z" />
<glyph unicode="&#x445;" horiz-adv-x="1204" d="M-12 211q16 139 223 45q-148 -133 -82 -176q55 -37 121 18q59 51 110 162q115 256 66 475q-43 182 -98 209q-72 31 -240 -117q-33 -41 -27 66q102 94 218 129q231 68 299 -227q45 164 186 227q137 61 272 -10q27 -14 51 -80q25 -68 21 -127q-12 -164 -217 -78 q131 186 67 225q-125 78 -225 -108q-92 -174 -92 -408q0 -250 125 -323q147 -90 426 137q25 -61 29 -51q-66 -106 -281 -193q-295 -119 -420 193q-104 -180 -231 -230q-125 -51 -236 43q-82 70 -65 199z" />
<glyph unicode="&#x446;" horiz-adv-x="1067" d="M-23 -459q-18 72 15 150q68 156 327 186q-27 -2 435 -22q88 -21 137 36q27 31 57 119q-102 -68 -194 2q-123 150 -4 539q-252 -596 -420 -584q-162 -23 -176 144q-4 41 32 362q53 500 41 508q-96 29 -157 -61l-29 24q-6 2 104 103q104 94 222 38q70 -31 57 -223 q-4 -63 -18 -174l-25 -174l-25 -235q-4 -106 37 -107q72 -8 254 377q223 465 242 491q45 -57 129 -86q-164 -616 -178 -757q-18 -199 164 -101l12 -16l-2 -2q16 2 20 -2t-4 -8q-2 -2 -69 -179q-61 -162 -179 -178q-508 -25 -641 -63q-18 -6 -164 -107z" />
<glyph unicode="&#x447;" horiz-adv-x="915" d="M-43 872l4 52q59 14 117 32l2 13q16 121 70 176q45 49 100 35q53 -14 76 -72q25 -63 -7 -139q-31 -68 -106 -72q-23 -84 18 -115q39 -31 117 -6q184 59 295 283q31 -16 53 -43q47 -55 9 -107q-51 -102 -93 -284q-53 -238 -12 -367q41 -143 152 -61q98 72 139 206l24 -18 q-29 -133 -96 -250q-133 -231 -330 -137q-152 72 -63 430q80 330 123 346q2 0 -90 -55q-90 -55 -158 -74q-217 -61 -223 242q-76 -16 -121 -15z" />
<glyph unicode="&#x448;" horiz-adv-x="1630" d="M6 944q-6 2 103 103q104 94 223 38q70 -31 59 -215q-4 -63 -18 -170q-20 -150 -23 -172q-6 -43 -18 -120q-12 -72 -15 -101q-8 -94 54 -100q68 -6 202 373q158 440 193 487q106 -33 190 -61q-35 -123 -116 -510q-14 -129 4 -220q20 -92 67 -92q70 -6 232 385 q193 461 221 500q88 -88 172 -117q-168 -633 -182 -774q-10 -100 82 -104q72 -4 163 45l13 -31q-53 -45 -123 -76q-139 -61 -229 8q-123 152 -3 543q-51 -152 -127 -303q-152 -301 -280 -297q-168 37 -180 266q-10 160 47 326q-254 -600 -422 -588q-164 -23 -176 144 q-4 41 33 362q53 500 41 508q-96 29 -158 -61zM342 -258q2 31 12 68q8 35 8 30q-12 23 246 41q291 18 514 -49q-35 -39 -14 -92q23 18 -268 0q-307 -20 -463 -78q-47 -16 -35 80z" />
<glyph unicode="&#x449;" horiz-adv-x="1656" d="M6 944q-6 2 103 103q104 94 223 38q70 -31 59 -215q-4 -63 -18 -170q-20 -150 -23 -172q-18 -160 -16 -217q2 -88 45 -88q68 -6 199 365q154 432 188 479q106 -33 190 -61q-35 -123 -116 -510q-14 -129 4 -220q20 -92 67 -92q70 -6 232 385q193 461 221 500 q88 -88 172 -117q-168 -633 -182 -774q-10 -100 82 -104q72 -4 163 45l13 -31l-17 -14q-14 -16 -30 -74q-27 -80 -39 -111q-59 -147 -170 -163q-500 -25 -768 -125q-106 -39 -289 -166q-8 100 49 207q117 213 453 245q-16 -2 528 -24q115 0 187 162q-156 -80 -256 -5 q-123 150 -7 529q-207 -592 -403 -586q-168 37 -182 264q-8 156 47 324q-61 -147 -156 -309q-164 -283 -264 -275q-164 -23 -176 144q-4 41 33 362q53 500 41 508q-96 29 -158 -61z" />
<glyph unicode="&#x44a;" horiz-adv-x="868" d="M-1415 1071q51 217 334 272q248 49 581 -34q428 -131 695 -164q-2 49 55 59t96 -26q27 -27 27 -74q0 -51 -37 -68q29 -249 0 -497q-6 -49 -23 -133q-18 -102 -22 -132q-23 -143 20 -184q127 -70 219 111q86 170 48 331q-113 -10 -158 21q-37 25 -25 68q8 27 54 43 q45 18 94 14q45 -4 141 -47q111 10 166 86q27 -23 22 -29q2 4 -8 -6q-18 -39 -67 -68q-47 -27 -82 -24q119 -193 -8 -412q-135 -233 -426 -196q-172 27 -179 202q0 29 54 361q53 334 41 512q-274 16 -494 53q-453 102 -1118 -39z" />
<glyph unicode="&#x44b;" horiz-adv-x="1345" d="M25 868q-8 2 98 97q102 90 217 36q70 -27 59 -202q0 25 -41 -324q-6 -41 -20 -125q-14 -86 -19 -125q-16 -137 27 -176q125 -66 211 86q80 143 43 297q-106 -10 -151 35q-33 37 -21 84q6 23 53 39q45 18 90 14q121 -8 183 -74q109 66 204 144q45 297 78 389 q129 -68 211 -94q-150 -692 -164 -826q-10 -96 80 -98q72 -4 160 41q0 -2 12 -29q-68 -51 -147 -86q-162 -70 -234 9q-72 86 -10 591l-51 -28q-31 -20 -109 -62q96 -172 -41 -362q-145 -207 -428 -172q-170 25 -184 162q-2 18 35 315q49 473 39 479q-94 29 -156 -57z" />
<glyph unicode="&#x44c;" horiz-adv-x="980" d="M12 862q-6 2 103 103q104 94 223 39q70 -31 55 -175q-4 -45 -20 -143q-18 -106 -23 -158q-6 -43 -20 -133q-16 -92 -21 -133q-16 -145 29 -186q127 -70 215 92q82 152 45 313q-111 -10 -156 39q-35 37 -20 86q6 27 53 43q45 18 94 15q123 -8 185 -78q147 35 155 65 q27 -12 13 -39q-12 -23 -50 -41q-27 -12 -49 -20l-39 -16q98 -182 -39 -385q-150 -219 -438 -183q-174 27 -188 172q-4 23 33 334q6 72 43 291q20 123 4 135q-96 29 -158 -61z" />
<glyph unicode="&#x44d;" horiz-adv-x="915" d="M-45 199q10 86 33 37q137 -205 313 -203q164 2 262 168q47 80 62 202l-359 58q-41 4 -155 -41q12 39 53 76q82 72 233 59q82 -10 140 -37q82 -41 90 -43q2 182 -64 336q-66 156 -149 154q-129 -2 -193 -109q-33 -51 -39 -104q-127 76 -14 180q100 92 209 100 q162 12 287 -78q117 -86 167 -235q117 -342 -159 -633q-233 -246 -498 -90q-133 76 -219 203z" />
<glyph unicode="&#x44e;" horiz-adv-x="1388" d="M-29 838q25 47 70 84q88 70 184 10q141 -139 97 -520q70 -4 155 73q10 223 123 363q147 186 361 186q102 0 157 -49q66 -57 27 -149q-78 35 -176 10q-195 -47 -289 -340q-55 -172 -33 -291q20 -104 92 -143q68 -37 146 0q80 41 123 143q80 188 41 350q-33 139 -117 164 l174 82q94 -111 266 -82q8 -16 -4 -41q-23 -45 -113 -78q27 -94 -32 -241q-57 -147 -164 -258q-119 -121 -240 -134q-141 -16 -256 125q-68 88 -84 273l-162 -96q-43 -285 -92 -367q-86 33 -182 51q104 662 104 803q0 102 -49 108q-35 2 -112 -51zM537 551l2 4q-2 0 -2 -4z " />
<glyph unicode="&#x44f;" horiz-adv-x="1056" d="M-686 -55q45 -109 199 -146q147 -35 329 11q440 106 557 477q-117 -31 -211 35q-88 59 -129 180q-41 119 -16 246q27 137 125 231q147 143 328 141q190 -4 213 -182q-81 30 -177 20q-193 -20 -276 -223q-96 -231 53 -309q59 -31 131 -16q74 14 117 67q68 82 105 365 q55 -61 206 -41q31 -49 -98 -84q-127 -260 -59 -510q29 -106 90 -103q70 2 160 154l65 -41q-41 -84 -106 -156q-129 -141 -248 -81q-96 47 -107 352l-41 -15q-61 -209 -237 -417q-174 -205 -353 -285q295 127 -620 330z" />
<glyph unicode="&#x451;" horiz-adv-x="870" d="M33 483q23 336 293 486q113 61 217 47q109 -14 159 -111q125 -231 -110 -432q-86 -74 -186 -113q-94 -39 -127 -18q-11 -163 118 -276q147 -127 305 110q12 18 3 96l-9 72q119 12 152 -61q0 -51 -57 -146q-94 -156 -279 -188q-240 -41 -379 176q-113 174 -100 358z M242 1188q4 96 98 96q47 0 70 -37q20 -31 12 -65q-16 -76 -88 -80q-74 -4 -92 86zM274 414q123 -7 277 237q68 104 70 178q4 84 -82 101q-115 23 -213 -252q-37 -98 -52 -186q-16 -86 0 -78zM532 1210q5 97 99 97q47 0 69 -37q20 -31 13 -66q-16 -76 -88 -80q-74 -4 -93 86z " />
<glyph unicode="&#x4eb;" />
<glyph unicode="&#x2000;" horiz-adv-x="1063" />
<glyph unicode="&#x2001;" horiz-adv-x="2127" />
<glyph unicode="&#x2002;" horiz-adv-x="1063" />
<glyph unicode="&#x2003;" horiz-adv-x="2127" />
<glyph unicode="&#x2004;" horiz-adv-x="709" />
<glyph unicode="&#x2005;" horiz-adv-x="531" />
<glyph unicode="&#x2006;" horiz-adv-x="354" />
<glyph unicode="&#x2007;" horiz-adv-x="354" />
<glyph unicode="&#x2008;" horiz-adv-x="265" />
<glyph unicode="&#x2009;" horiz-adv-x="425" />
<glyph unicode="&#x200a;" horiz-adv-x="118" />
<glyph unicode="&#x2010;" horiz-adv-x="782" d="M76 571q-16 80 10 138q33 -57 207 -82q270 -37 426 -4l6 -93q-86 -74 -307 -88q-199 -12 -273 23q-51 25 -69 106z" />
<glyph unicode="&#x2011;" horiz-adv-x="782" d="M76 571q-16 80 10 138q33 -57 207 -82q270 -37 426 -4l6 -93q-86 -74 -307 -88q-199 -12 -273 23q-51 25 -69 106z" />
<glyph unicode="&#x2012;" horiz-adv-x="782" d="M76 571q-16 80 10 138q33 -57 207 -82q270 -37 426 -4l6 -93q-86 -74 -307 -88q-199 -12 -273 23q-51 25 -69 106z" />
<glyph unicode="&#x2013;" horiz-adv-x="1466" d="M156 625q-16 80 10 137q33 -57 207 -82q647 -90 884 -23l7 -79q-84 -74 -537 -84q-426 -10 -502 24q-51 25 -69 107z" />
<glyph unicode="&#x2014;" horiz-adv-x="1501" d="M156 625q-16 80 10 137q33 -57 207 -82q604 -84 977 -4l10 -72q-84 -74 -586 -98q-475 -23 -549 12q-51 25 -69 107z" />
<glyph unicode="&#x2018;" horiz-adv-x="323" d="M59 1288q-35 225 238 338l16 -18q-88 -61 -102 -191q61 -18 76 -104q-4 -131 -123 -131q-100 0 -105 106z" />
<glyph unicode="&#x2019;" horiz-adv-x="329" d="M33 1145q86 63 98 192q-63 18 -78 103q0 131 119 135q102 0 107 -105q41 -223 -230 -344z" />
<glyph unicode="&#x201a;" horiz-adv-x="348" d="M25 -211q94 66 108 207q-63 20 -82 117q3 36 19 71q35 72 114 72q109 0 113 -117q41 -246 -256 -370z" />
<glyph unicode="&#x201c;" horiz-adv-x="593" d="M59 1288q-35 225 238 338l16 -18q-88 -61 -102 -191q61 -18 76 -104q-4 -131 -123 -131q-100 0 -105 106zM326 1288q-14 78 22 156q55 115 215 182l15 -18q-86 -61 -101 -191q61 -18 76 -104q-4 -131 -123 -131q-100 0 -104 106z" />
<glyph unicode="&#x201d;" horiz-adv-x="579" d="M14 1139q84 63 97 192q-63 18 -78 103q0 131 119 135q100 0 108 -105q41 -223 -231 -344zM279 1145q86 63 98 192q-63 18 -78 103q0 131 119 135q102 0 106 -105q41 -223 -229 -344z" />
<glyph unicode="&#x202f;" horiz-adv-x="425" />
<glyph unicode="&#x205f;" horiz-adv-x="531" />
<glyph unicode="&#x25fc;" horiz-adv-x="1136" d="M0 0v1137h1137v-1137h-1137z" />
</font>
</defs>
</svg>
